<svg class="animated" id="freepik_stories-business-support" xmlns="http://www.w3.org/2000/svg" viewBox="0 0 500 500" version="1.1" xmlns:xlink="http://www.w3.org/1999/xlink" xmlns:svgjs="http://svgjs.com/svgjs"><style>svg#freepik_stories-business-support:not(.animated) .animable {opacity: 0;}svg#freepik_stories-business-support.animated #freepik--background-complete--inject-4 {animation: 1s 1 forwards cubic-bezier(.36,-0.01,.5,1.38) slideDown;animation-delay: 0s;}svg#freepik_stories-business-support.animated #freepik--Shadow--inject-4 {animation: 1s 1 forwards cubic-bezier(.36,-0.01,.5,1.38) slideLeft;animation-delay: 0s;}svg#freepik_stories-business-support.animated #freepik--Plant--inject-4 {animation: 1s 1 forwards cubic-bezier(.36,-0.01,.5,1.38) slideRight,3s Infinite  linear heartbeat;animation-delay: 0s,1s;}svg#freepik_stories-business-support.animated #freepik--Arrow--inject-4 {animation: 1s 1 forwards cubic-bezier(.36,-0.01,.5,1.38) lightSpeedLeft;animation-delay: 0s;}svg#freepik_stories-business-support.animated #freepik--speech-bubble--inject-4 {animation: 1s 1 forwards cubic-bezier(.36,-0.01,.5,1.38) lightSpeedRight,6s Infinite  linear heartbeat;animation-delay: 0s,1s;}svg#freepik_stories-business-support.animated #freepik--Character--inject-4 {animation: 1s 1 forwards cubic-bezier(.36,-0.01,.5,1.38) lightSpeedLeft,3s Infinite  linear floating;animation-delay: 0s,1s;}svg#freepik_stories-business-support.animated #freepik--Hand--inject-4 {animation: 1s 1 forwards cubic-bezier(.36,-0.01,.5,1.38) slideUp;animation-delay: 0s;}            @keyframes slideDown {                0% {                    opacity: 0;                    transform: translateY(-30px);                }                100% {                    opacity: 1;                    transform: translateY(0);                }            }                    @keyframes slideLeft {                0% {                    opacity: 0;                    transform: translateX(-30px);                }                100% {                    opacity: 1;                    transform: translateX(0);                }            }                    @keyframes slideRight {                0% {                    opacity: 0;                    transform: translateX(30px);                }                100% {                    opacity: 1;                    transform: translateX(0);                }            }                    @keyframes heartbeat {                0% {                    transform: scale(1);                }                10% {                    transform: scale(1.1);                }                30% {                    transform: scale(1);                }                40% {                    transform: scale(1);                }                50% {                    transform: scale(1.1);                }                60% {                    transform: scale(1);                }                100% {                    transform: scale(1);                }            }                    @keyframes lightSpeedLeft {              from {                transform: translate3d(-50%, 0, 0) skewX(20deg);                opacity: 0;              }              60% {                transform: skewX(-10deg);                opacity: 1;              }              80% {                transform: skewX(2deg);              }              to {                opacity: 1;                transform: translate3d(0, 0, 0);              }            }                    @keyframes lightSpeedRight {              from {                transform: translate3d(50%, 0, 0) skewX(-20deg);                opacity: 0;              }              60% {                transform: skewX(10deg);                opacity: 1;              }              80% {                transform: skewX(-2deg);              }              to {                opacity: 1;                transform: translate3d(0, 0, 0);              }            }                    @keyframes floating {                0% {                    opacity: 1;                    transform: translateY(0px);                }                50% {                    transform: translateY(-10px);                }                100% {                    opacity: 1;                    transform: translateY(0px);                }            }                    @keyframes slideUp {                0% {                    opacity: 0;                    transform: translateY(30px);                }                100% {                    opacity: 1;                    transform: inherit;                }            }        </style><g id="freepik--background-complete--inject-4" class="animable" style="transform-origin: 250px 238.23px;"><path d="M109.41,171.39H96.34A2.43,2.43,0,0,1,93.91,169V156.05c0-2.38-.56-4.61-2.2-5.65a2.4,2.4,0,0,0-3.57,1.76c-.61,3.83-2.4,11.61-7.4,16.45A10.81,10.81,0,0,0,78,175.37v23.08c0,2.26,4,4.09,8.8,4.09h19.8a6.94,6.94,0,0,0,6.94-6.94v-3a13.66,13.66,0,0,1,1.68-6.26,9.91,9.91,0,0,0,1.12-4.59v-3.43A6.94,6.94,0,0,0,109.41,171.39Z" style="fill: rgb(235, 235, 235); transform-origin: 97.17px 176.312px;" id="elyj0mlk65b38" class="animable"></path><rect x="66.96" y="172.23" width="8.45" height="28.59" style="fill: rgb(235, 235, 235); transform-origin: 71.185px 186.525px;" id="elg4dnxb49oqu" class="animable"></rect><path d="M382.07,254.87l7.31-20.07a21.37,21.37,0,0,1,12.27,11.54Z" style="fill: rgb(245, 245, 245); transform-origin: 391.86px 244.835px;" id="eln9fgirdzyte" class="animable"></path><path d="M382.07,254.87l6.23,20.43a21.36,21.36,0,1,1-6.23-41.79,21.32,21.32,0,0,1,7.21,1.25Z" style="fill: rgb(224, 224, 224); transform-origin: 374.993px 254.87px;" id="elc4gxavtvxg" class="animable"></path><path d="M382.07,254.87l19.62-8.44a21.35,21.35,0,0,1-13.31,28.84Z" style="fill: rgb(235, 235, 235); transform-origin: 392.75px 260.85px;" id="ellfn30hn7oa" class="animable"></path><path d="M156.27,269.42a34.9,34.9,0,0,0-5,12.05l-6.73.64v13l6.73.63a34.87,34.87,0,0,0,5,12.06L152,313l9.22,9.22,5.19-4.3a34.87,34.87,0,0,0,12.06,5l.63,6.73h13l.64-6.73a34.9,34.9,0,0,0,12.05-5l5.2,4.3,9.22-9.22-4.3-5.19a34.65,34.65,0,0,0,5-12.06l6.74-.63v-13l-6.74-.64a34.68,34.68,0,0,0-5-12.05l4.3-5.2L210,255l-5.2,4.3a34.68,34.68,0,0,0-12.05-5l-.64-6.74h-13l-.63,6.74a34.65,34.65,0,0,0-12.06,5l-5.19-4.3L152,264.22Zm41.54,7a17.28,17.28,0,1,1-24.44,0A17.28,17.28,0,0,1,197.81,276.41Z" style="fill: rgb(240, 240, 240); transform-origin: 185.595px 288.605px;" id="eljzs1rshdukc" class="animable"></path><path d="M138,91.87a56.49,56.49,0,0,0-8.08,19.56l-10.92,1v21.16l10.93,1A56.28,56.28,0,0,0,138,154.21l-7,8.43,15,15,8.43-7A56.65,56.65,0,0,0,174,178.7l1,10.92h21.16l1-10.92a56.49,56.49,0,0,0,19.56-8.08l8.43,7,15-15-7-8.43a56.66,56.66,0,0,0,8.07-19.56l10.92-1V112.46l-10.92-1a56.65,56.65,0,0,0-8.08-19.56l7-8.43-15-15-8.43,7a56.49,56.49,0,0,0-19.56-8.08l-1-10.92H175l-1,10.92a56.65,56.65,0,0,0-19.56,8.08l-8.43-7-15,15Zm67.41,11.34a28,28,0,1,1-39.66,0A28,28,0,0,1,205.42,103.21Z" style="fill: rgb(245, 245, 245); transform-origin: 185.57px 123.045px;" id="elowbhwmes47" class="animable"></path><path d="M289.7,161.88a41.81,41.81,0,0,0-6,14.44l-8.06.76v15.61l8.06.76a41.68,41.68,0,0,0,6,14.43l-5.15,6.22,11,11,6.22-5.15a41.57,41.57,0,0,0,14.43,6L317,234h15.61l.76-8.06a41.61,41.61,0,0,0,14.44-6l6.22,5.15,11-11-5.15-6.22a41.66,41.66,0,0,0,5.95-14.43l8.06-.76V177.08l-8.06-.76a42,42,0,0,0-6-14.44l5.15-6.21-11-11-6.22,5.15a41.61,41.61,0,0,0-14.44-6l-.76-8.06H317l-.76,8.06a41.74,41.74,0,0,0-14.43,6l-6.22-5.14-11,11Zm49.74,8.37a20.69,20.69,0,1,1-29.26,0A20.69,20.69,0,0,1,339.44,170.25Z" style="fill: rgb(240, 240, 240); transform-origin: 324.765px 184.88px;" id="elmz8wj6rteua" class="animable"></path><path d="M100.23,243.39a21.49,21.49,0,0,0-3,7.33l-4.09.38V259l4.09.39a21.32,21.32,0,0,0,3,7.32l-2.61,3.15,5.6,5.6,3.16-2.61a21,21,0,0,0,7.32,3l.38,4.09H122l.39-4.09a21.13,21.13,0,0,0,7.32-3l3.15,2.61,5.6-5.6-2.61-3.15a21.13,21.13,0,0,0,3-7.32L143,259V251.1l-4.09-.38a21.1,21.1,0,0,0-3-7.33l2.61-3.15-5.6-5.6-3.15,2.61a21.13,21.13,0,0,0-7.32-3l-.39-4.09h-7.92l-.38,4.09a21,21,0,0,0-7.32,3l-3.16-2.61-5.6,5.6Zm25.23,4.25a10.49,10.49,0,1,1-14.84,0A10.49,10.49,0,0,1,125.46,247.64Z" style="fill: rgb(224, 224, 224); transform-origin: 118.07px 255.05px;" id="el17a02xl413m" class="animable"></path><path d="M382.2,124.78a21.18,21.18,0,0,0-3,7.32l-4.09.39v7.91l4.09.39a21.18,21.18,0,0,0,3,7.32l-2.62,3.16,5.6,5.6,3.16-2.62a21.18,21.18,0,0,0,7.32,3l.39,4.09H404l.39-4.08a21.18,21.18,0,0,0,7.32-3l3.16,2.62,5.6-5.6-2.62-3.16a21.18,21.18,0,0,0,3-7.32l4.08-.39v-7.91l-4.09-.39a21.18,21.18,0,0,0-3-7.32l2.62-3.16-5.6-5.6-3.16,2.62a21.18,21.18,0,0,0-7.32-3l-.39-4.09h-7.91l-.39,4.09a21.18,21.18,0,0,0-7.32,3L385.18,116l-5.6,5.6ZM407.43,129a10.5,10.5,0,1,1-14.85,0A10.52,10.52,0,0,1,407.43,129Z" style="fill: rgb(224, 224, 224); transform-origin: 400.02px 136.45px;" id="elyao9ts0wrwq" class="animable"></path><path d="M392.68,195.14a13,13,0,0,0-1.86,4.5l-2.51.23v4.86l2.51.24a12.94,12.94,0,0,0,1.86,4.49l-1.61,1.94,3.44,3.43,1.93-1.6a13.18,13.18,0,0,0,4.5,1.86l.23,2.5H406l.24-2.5a13.13,13.13,0,0,0,4.49-1.86l1.94,1.6,3.43-3.43-1.6-1.94a13.13,13.13,0,0,0,1.86-4.49l2.5-.24v-4.86l-2.51-.23a13.18,13.18,0,0,0-1.86-4.5l1.6-1.93-3.43-3.44-1.94,1.61a12.94,12.94,0,0,0-4.49-1.86L406,187h-4.86l-.23,2.51a12.86,12.86,0,0,0-4.49,1.86l-1.94-1.61-3.44,3.44Zm15.48,2.61a6.44,6.44,0,1,1-9.11,0A6.45,6.45,0,0,1,408.16,197.75Z" style="fill: rgb(240, 240, 240); transform-origin: 403.585px 202.295px;" id="el3bzvscv806t" class="animable"></path><rect x="72.42" y="317.81" width="15.43" height="40.58" style="fill: rgb(224, 224, 224); transform-origin: 80.135px 338.1px;" id="el62indjfmdbj" class="animable"></rect><rect x="91.65" y="330.71" width="15.43" height="27.68" style="fill: rgb(224, 224, 224); transform-origin: 99.365px 344.55px;" id="eltkjpgrp67d" class="animable"></rect><rect x="110.33" y="344.55" width="15.43" height="13.84" style="fill: rgb(224, 224, 224); transform-origin: 118.045px 351.47px;" id="elurzaslp5gk" class="animable"></rect><path d="M443.92,330.2H263.17a5.87,5.87,0,0,1-5.86-5.86V61.06a5.87,5.87,0,0,1,5.86-5.86H443.92a5.87,5.87,0,0,1,5.86,5.86V324.34A5.87,5.87,0,0,1,443.92,330.2ZM263.17,55.45a5.62,5.62,0,0,0-5.61,5.61V324.34a5.62,5.62,0,0,0,5.61,5.61H443.92a5.61,5.61,0,0,0,5.61-5.61V61.06a5.61,5.61,0,0,0-5.61-5.61Z" style="fill: rgb(224, 224, 224); transform-origin: 353.545px 192.7px;" id="elegxf5451cs" class="animable"></path><path d="M235.49,330.2H54.75a5.87,5.87,0,0,1-5.87-5.86V61.06a5.87,5.87,0,0,1,5.87-5.86H235.49a5.86,5.86,0,0,1,5.86,5.86V324.34A5.86,5.86,0,0,1,235.49,330.2ZM54.75,55.45a5.62,5.62,0,0,0-5.62,5.61V324.34A5.62,5.62,0,0,0,54.75,330H235.49a5.61,5.61,0,0,0,5.61-5.61V61.06a5.61,5.61,0,0,0-5.61-5.61Z" style="fill: rgb(224, 224, 224); transform-origin: 145.115px 192.7px;" id="elrbbq1xbvjre" class="animable"></path><rect y="391.27" width="500" height="0.25" style="fill: rgb(224, 224, 224); transform-origin: 250px 391.395px;" id="elzyza6hopdfj" class="animable"></rect><rect x="65.54" y="411.72" width="16.06" height="0.25" style="fill: rgb(224, 224, 224); transform-origin: 73.57px 411.845px;" id="elbl6kht2zc6v" class="animable"></rect><rect x="184.22" y="409.01" width="53.53" height="0.25" style="fill: rgb(224, 224, 224); transform-origin: 210.985px 409.135px;" id="elwpclf41mvc" class="animable"></rect><rect x="82.6" y="421.01" width="36.25" height="0.25" style="fill: rgb(224, 224, 224); transform-origin: 100.725px 421.135px;" id="elo2yz39lajdg" class="animable"></rect><rect x="392.22" y="408.88" width="43.19" height="0.25" style="fill: rgb(224, 224, 224); transform-origin: 413.815px 409.005px;" id="elx0ngf1j2xk" class="animable"></rect><rect x="444.32" y="408.88" width="6.33" height="0.25" style="fill: rgb(224, 224, 224); transform-origin: 447.485px 409.005px;" id="el41os89v20q8" class="animable"></rect><rect x="330.08" y="415.11" width="53.89" height="0.25" style="fill: rgb(224, 224, 224); transform-origin: 357.025px 415.235px;" id="elovn1myw3r1" class="animable"></rect></g><g id="freepik--Shadow--inject-4" class="animable" style="transform-origin: 250px 465.325px;"><path d="M454.43,465.33c0,2.63-91.53,4.77-204.43,4.77S45.57,468,45.57,465.33s91.53-4.78,204.43-4.78S454.43,462.69,454.43,465.33Z" style="fill: rgb(245, 245, 245); transform-origin: 250px 465.325px;" id="elz6rc4ihab9d" class="animable"></path></g><g id="freepik--Plant--inject-4" class="animable" style="transform-origin: 384.189px 445.798px;"><path d="M376.66,434.13a16.68,16.68,0,0,0-3.77-3.87,4.56,4.56,0,0,0-4.33-.8c-1.82.74-2.65,3-2.4,4.92a15.24,15.24,0,0,0,2.29,6c4.72,6.92,9.09,13.25,16.38,18.39C384.83,450.21,381,441.46,376.66,434.13Z" style="fill: rgb(64, 123, 255); transform-origin: 375.473px 443.998px;" id="eljapk8aoths" class="animable"></path><path d="M400.71,435.33c-1.63-.9-4.67.37-6.16,1.48a22.69,22.69,0,0,0-6.54,7.75c-2.29,4.09-2.55,9.82-2.84,13.47,5.77-4.69,11.65-9.49,15.61-15.79a8.37,8.37,0,0,0,1.45-3.57A3.44,3.44,0,0,0,400.71,435.33Z" style="fill: rgb(64, 123, 255); transform-origin: 393.716px 446.527px;" id="elekv60zfs53" class="animable"></path><path d="M385.69,462.36a.25.25,0,0,1-.24-.2,56.16,56.16,0,0,0-7.21-17.83.26.26,0,0,1,.08-.35.26.26,0,0,1,.35.09,56.83,56.83,0,0,1,7.27,18,.26.26,0,0,1-.19.3Z" style="fill: rgb(38, 50, 56); transform-origin: 382.074px 453.158px;" id="elw2w1cdixill" class="animable"></path><path d="M384.93,458.83h-.08a.25.25,0,0,1-.15-.32,39,39,0,0,1,6.7-11.67.25.25,0,0,1,.39.32,38.37,38.37,0,0,0-6.62,11.52A.25.25,0,0,1,384.93,458.83Z" style="fill: rgb(38, 50, 56); transform-origin: 388.266px 452.789px;" id="elycdwjyh3bj" class="animable"></path></g><g id="freepik--Arrow--inject-4" class="animable" style="transform-origin: 241.07px 383.185px;"><polygon points="425.27 305.24 403.05 303.56 411.57 313.56 379.15 339.27 324.85 339.15 241.1 384.76 90.96 384.76 34.65 462.81 78.28 462.81 109.21 420.44 241.1 420.44 324.76 376.13 392 376.28 435.57 341.71 443.78 351.34 445.63 329.13 447.49 306.92 425.27 305.24" style="fill: rgb(64, 123, 255); transform-origin: 241.07px 383.185px;" id="elnz7kbolrzfi" class="animable"></polygon></g><g id="freepik--speech-bubble--inject-4" class="animable" style="transform-origin: 315.7px 80.72px;"><g id="elcbb2loqa5tu"><circle cx="315.7" cy="80.72" r="20.41" style="fill: rgb(64, 123, 255); transform-origin: 315.7px 80.72px; transform: rotate(-40.08deg);" class="animable"></circle></g><polygon points="305.46 93.01 300.22 93.43 299.31 99.99 305.64 98.43 305.46 93.01" style="fill: rgb(64, 123, 255); transform-origin: 302.475px 96.5px;" id="elxqszj2w2z1g" class="animable"></polygon><path d="M338.38,77.15a.24.24,0,0,1-.24-.22A20.07,20.07,0,0,0,327.4,61.44a.26.26,0,0,1-.11-.34.25.25,0,0,1,.33-.11,20.56,20.56,0,0,1,11,15.89.24.24,0,0,1-.22.27Z" style="fill: rgb(64, 123, 255); transform-origin: 332.943px 69.0577px;" id="elob3udugxpl7" class="animable"></path><path d="M338.51,83.21h-.05a.25.25,0,0,1-.19-.3,7.14,7.14,0,0,0,.08-2.91.25.25,0,0,1,.2-.29.24.24,0,0,1,.29.2,7.58,7.58,0,0,1-.08,3.11A.26.26,0,0,1,338.51,83.21Z" style="fill: rgb(64, 123, 255); transform-origin: 338.614px 81.4571px;" id="el5qey09b0c33" class="animable"></path><path d="M308.1,75.74a9.14,9.14,0,0,0-1.29,3.12l-1.74.17v3.38l1.74.16a9.19,9.19,0,0,0,1.29,3.13L307,87l2.39,2.39,1.34-1.11a9.19,9.19,0,0,0,3.13,1.29l.16,1.74h3.38l.17-1.74a9.14,9.14,0,0,0,3.12-1.29L322,89.43,324.42,87,323.3,85.7a8.81,8.81,0,0,0,1.29-3.13l1.75-.16V79l-1.75-.17a8.76,8.76,0,0,0-1.29-3.12l1.12-1.35L322,72l-1.35,1.11a9.14,9.14,0,0,0-3.12-1.29l-.17-1.74H314l-.16,1.74a9.19,9.19,0,0,0-3.13,1.29L309.38,72,307,74.39Zm10.84,1.74a4.57,4.57,0,1,1-6.47,0A4.57,4.57,0,0,1,318.94,77.48Z" style="fill: rgb(255, 255, 255); transform-origin: 315.705px 80.695px;" id="elvo6opy9fpo" class="animable"></path></g><g id="freepik--Character--inject-4" class="animable" style="transform-origin: 245.636px 217.635px;"><path d="M180.14,202.44s5.36-8,12.09-6.34,7.13,12.64,7.13,12.64l-3.73-1.29s1.22-7.95-3.57-9.08-9.27,5.27-9.27,5.27l-2.15-1.14" style="fill: rgb(38, 50, 56); transform-origin: 189.75px 202.307px;" id="elo6v8ngs4rci" class="animable"></path><polygon points="145.12 240.57 147.16 235.27 161.94 196.94 218.88 214.14 207.05 260.17 145.12 240.57" style="fill: rgb(64, 123, 255); transform-origin: 182px 228.555px;" id="elsvwxkmxj55" class="animable"></polygon><path d="M193.15,184.9c-.87.29-5.75,6.15-6.73,7.82s-1.09,2.76-.34,3.33a6.67,6.67,0,0,0,1.84,1.15c.23,0-.81,1.73.51,2.59s2,.69,2,.69-.34,2.53,1.38,3.22,2.47-.12,2.76,0,1.84-2.82,1.84-2.82l2,3.1a12.08,12.08,0,0,0,1.84-2.64c.92-1.73.86-6.61.86-6.61l-.92-4.37,1.56-6.27s-7.59-1-7.65-.85S193.15,184.9,193.15,184.9Z" style="fill: rgb(233, 179, 118); transform-origin: 193.67px 193.603px;" id="el40n1q171mj6" class="animable"></path><g id="el6rfaeavsg3f"><polygon points="208.85 253.17 147.5 234.4 145.12 240.57 207.05 260.17 208.85 253.17" style="isolation: isolate; opacity: 0.2; transform-origin: 176.985px 247.285px;" class="animable"></polygon></g><path d="M343.06,191.08s.21.68-.6,2-2.57.4-2.56.63a7,7,0,0,1-1.07,1.88c-.54.77-1.64.7-3.35-.2s-7.77-5.54-8.09-6.39c0,0-1.53-.85-1.71-.9s.54-7.67.54-7.67l6.32,1.28,4.33-1.1s4.88-.27,6.64.58c.31.14.59.29.85.44a1.49,1.49,0,0,1,.11,2.52l-1.26.9s1.24.67,2.11,1.19a1.66,1.66,0,0,1,.82,1.63,1.24,1.24,0,0,1-.09.39.93.93,0,0,1-1.14.54,1.9,1.9,0,0,1-1.36,2C343,191,343.06,191.08,343.06,191.08Z" style="fill: rgb(233, 179, 118); transform-origin: 335.901px 188.275px;" id="el93pfpahv8m" class="animable"></path><g id="el34ewlk8y5e9"><path d="M339.82,187.66a1.81,1.81,0,0,1-.81-.19,1.37,1.37,0,0,1-.67-.83,4,4,0,0,1-.08-2.14,7.48,7.48,0,0,1-1.44,1.19,3.46,3.46,0,0,1-1.36.58,1.91,1.91,0,0,1-1.5-.35.25.25,0,1,1,.31-.39,1.38,1.38,0,0,0,1.11.24,2.86,2.86,0,0,0,1.17-.5,7,7,0,0,0,2-1.89h0a.76.76,0,0,1,.44-.57.26.26,0,0,1,.27.09.26.26,0,0,1,0,.28c-.09.14-.17.28-.27.41a4.9,4.9,0,0,0-.17,2.88.94.94,0,0,0,.41.55,1.21,1.21,0,0,0,1.14,0c.56-.38,1.11-.83,1.76-1.34l1.4-1.11a.25.25,0,0,1,.31.4c-.52.39-1,.76-1.4,1.1-.65.52-1.22,1-1.8,1.36A1.4,1.4,0,0,1,339.82,187.66Z" style="fill: rgb(38, 50, 56); opacity: 0.1; transform-origin: 338.893px 185.231px;" class="animable"></path></g><g id="elnx1u0pv2znd"><path d="M336.22,195.06a1.16,1.16,0,0,1-.75-.38,8,8,0,0,1-1.11-1.36,1.73,1.73,0,0,1-.35-1.54,1.35,1.35,0,0,1,1-.81,2.77,2.77,0,0,1,1.19.05,8.89,8.89,0,0,1,1.18.32,3.88,3.88,0,0,1-.3-.48,1.44,1.44,0,0,1,.08-1.73,1.57,1.57,0,0,1,1.51-.13,21.13,21.13,0,0,1,4.26,1.76.26.26,0,0,1,.1.34.25.25,0,0,1-.34.1,21,21,0,0,0-4.16-1.72c-.33-.1-.79-.2-1,0s-.17.73,0,1.12a3.69,3.69,0,0,0,1.14,1.28l.52.3a.26.26,0,0,1,.08.34.24.24,0,0,1-.32.1,3.6,3.6,0,0,1-.54-.31,8.12,8.12,0,0,0-2.3-.83,2.32,2.32,0,0,0-1,0,.87.87,0,0,0-.65.49,1.3,1.3,0,0,0,.3,1.1,7.9,7.9,0,0,0,1,1.27c.19.18.33.26.43.24a.24.24,0,0,1,.29.2.25.25,0,0,1-.2.29Z" style="fill: rgb(38, 50, 56); opacity: 0.1; transform-origin: 338.507px 191.967px;" class="animable"></path></g><g id="elzr3bfibbf5s"><path d="M338.15,189.39a.27.27,0,0,1-.2-.09,2.17,2.17,0,0,1-.44-1.14,1.53,1.53,0,0,1,.18-.87,1.05,1.05,0,0,1,.8-.53.26.26,0,0,1,.27.23.26.26,0,0,1-.23.27.53.53,0,0,0-.41.28,1.08,1.08,0,0,0-.11.59,1.54,1.54,0,0,0,.34.86.26.26,0,0,1,0,.35A.3.3,0,0,1,338.15,189.39Z" style="fill: rgb(38, 50, 56); opacity: 0.1; transform-origin: 338.132px 188.076px;" class="animable"></path></g><g id="elgtk4sh7dejj"><path d="M344.84,189a.28.28,0,0,1-.13,0,20,20,0,0,0-3.68-1.9.25.25,0,0,1-.14-.32.24.24,0,0,1,.32-.14,19.68,19.68,0,0,1,3.76,1.94.24.24,0,0,1,.08.34A.25.25,0,0,1,344.84,189Z" style="fill: rgb(38, 50, 56); opacity: 0.1; transform-origin: 342.982px 187.814px;" class="animable"></path></g><polygon points="191.12 319.78 181.65 340.43 190.31 345.17 203.19 324.31 191.12 319.78" style="fill: rgb(233, 179, 118); transform-origin: 192.42px 332.475px;" id="eltc153n7ushn" class="animable"></polygon><path d="M183.57,339.41c.57,1.69,3.16,2.89,4.76,2.62l.92-1.61c.95-1.27,1.79-1.65,3.17-.66.68.48,1.11,1.85,1,3.49a10.32,10.32,0,0,0,.54,4.58s4.82,6.85,6.8,8.86c1.18,1.19,2.71,2.87,2.91,4.93a8.36,8.36,0,0,1-.07,2,7.38,7.38,0,0,1-.7,1.74l-16.72-9.06a8.69,8.69,0,0,0-1.91-2.29,2.63,2.63,0,0,0-2.5.16l-6.1-3.25,1-2.46h0c.26-.65.55-1.4.86-2.19,1.33-3.39,3.78-7,4.16-7.92C182.33,336.64,183.57,339.41,183.57,339.41Z" style="fill: rgb(38, 50, 56); transform-origin: 189.685px 351.576px;" id="elbdgrirksncb" class="animable"></path><path d="M196.64,351.37a.26.26,0,0,0-.27-.17,3,3,0,0,0-1.52.52c-.24.17,0,.58.25.41a2.66,2.66,0,0,1,1.34-.46.22.22,0,0,0,.2-.3Z" style="fill: rgb(64, 123, 255); transform-origin: 195.703px 351.685px;" id="elkhmw1c50tc" class="animable"></path><path d="M195.73,350a.26.26,0,0,0-.27-.17,3.06,3.06,0,0,0-1.52.53c-.24.16,0,.58.25.41a2.77,2.77,0,0,1,1.34-.47.22.22,0,0,0,.2-.29Z" style="fill: rgb(64, 123, 255); transform-origin: 194.791px 350.319px;" id="elwpa03cqbfn" class="animable"></path><path d="M194.75,348.6a.29.29,0,0,0-.27-.17A3.06,3.06,0,0,0,193,349c-.24.16,0,.58.25.41a2.66,2.66,0,0,1,1.34-.46.23.23,0,0,0,.2-.3Z" style="fill: rgb(64, 123, 255); transform-origin: 193.851px 348.94px;" id="elh9nzb5xhgoi" class="animable"></path><g id="el8jfjintu2y2"><path d="M203.66,362.69c0,.3,0,.62-.08.95a7.73,7.73,0,0,1-.71,1.74l-16.72-9.06a8.69,8.69,0,0,0-1.91-2.29,2.63,2.63,0,0,0-2.5.16l-6.1-3.25,1-2.46h0l.14-.36Z" style="fill: rgb(255, 255, 255); isolation: isolate; opacity: 0.2; transform-origin: 189.65px 356.75px;" class="animable"></path></g><path d="M194.07,349.05l.19-.44a12.16,12.16,0,0,1,.91-1.8,4,4,0,0,1,1.54-1.43,1.15,1.15,0,0,1,1.12-.05,1.1,1.1,0,0,1,.41,1.12,2.58,2.58,0,0,1-1.09,1.69,9.34,9.34,0,0,1-2.62.82Zm3.3-3.34a1,1,0,0,0-.44.12,3.51,3.51,0,0,0-1.34,1.25,9.9,9.9,0,0,0-.68,1.29,6.79,6.79,0,0,0,2-.64,2.1,2.1,0,0,0,.89-1.35c0-.22,0-.51-.18-.62A.35.35,0,0,0,197.37,345.71Z" style="fill: rgb(64, 123, 255); transform-origin: 196.169px 347.129px;" id="el2xeexj0wd8q" class="animable"></path><path d="M194.62,349.17l-.36-.3a8.79,8.79,0,0,1-1.89-2,2.55,2.55,0,0,1-.15-2,1.12,1.12,0,0,1,.9-.78,1.2,1.2,0,0,1,1,.58,4,4,0,0,1,.65,2,11.43,11.43,0,0,1-.06,2Zm-1.46-4.57h0c-.21,0-.38.25-.45.46a2,2,0,0,0,.13,1.61,6.46,6.46,0,0,0,1.39,1.5,8.9,8.9,0,0,0,0-1.46,3.52,3.52,0,0,0-.57-1.74C193.57,344.83,193.38,344.6,193.16,344.6Z" style="fill: rgb(64, 123, 255); transform-origin: 193.436px 346.63px;" id="elpd4790ulhpj" class="animable"></path><polygon points="283.06 271.18 273.6 291.83 282.25 296.57 295.13 275.71 283.06 271.18" style="fill: rgb(233, 179, 118); transform-origin: 284.365px 283.875px;" id="elxiv666m770f" class="animable"></polygon><path d="M275.51,290.81c.58,1.69,3.16,2.89,4.76,2.62l.92-1.61c.95-1.27,1.8-1.65,3.17-.66.68.48,1.11,1.85,1,3.49a10.25,10.25,0,0,0,.54,4.57s4.83,6.86,6.8,8.87c1.18,1.19,2.71,2.87,2.91,4.93a8.89,8.89,0,0,1-.06,2,8.18,8.18,0,0,1-.71,1.74l-16.72-9.06a8.69,8.69,0,0,0-1.91-2.29,2.63,2.63,0,0,0-2.5.16l-6.1-3.25,1-2.46h0c.26-.65.55-1.4.86-2.19,1.33-3.4,3.78-7,4.17-7.92C274.27,288,275.51,290.81,275.51,290.81Z" style="fill: rgb(38, 50, 56); transform-origin: 281.625px 302.968px;" id="elgj7yhlff6gu" class="animable"></path><path d="M288.58,302.76a.28.28,0,0,0-.26-.17,3,3,0,0,0-1.52.53c-.25.17,0,.58.24.41a2.73,2.73,0,0,1,1.34-.46.23.23,0,0,0,.21-.3Z" style="fill: rgb(64, 123, 255); transform-origin: 287.649px 303.08px;" id="el2v76rfm94y8" class="animable"></path><path d="M287.67,301.37a.26.26,0,0,0-.27-.17,3.18,3.18,0,0,0-1.52.52c-.24.17,0,.59.25.42a2.68,2.68,0,0,1,1.34-.47.22.22,0,0,0,.2-.29Z" style="fill: rgb(64, 123, 255); transform-origin: 286.731px 301.689px;" id="elcepupu038l" class="animable"></path><path d="M286.69,300a.28.28,0,0,0-.27-.17,3.09,3.09,0,0,0-1.52.53c-.24.16,0,.58.25.41a2.66,2.66,0,0,1,1.34-.46.23.23,0,0,0,.2-.3Z" style="fill: rgb(64, 123, 255); transform-origin: 285.751px 300.32px;" id="elykhnj94dt3s" class="animable"></path><g id="elgwwe0gq03t8"><path d="M295.6,314.09a8.3,8.3,0,0,1-.08,1,7,7,0,0,1-.71,1.74l-16.72-9.06a8.81,8.81,0,0,0-1.9-2.29,2.62,2.62,0,0,0-2.5.16l-6.11-3.25,1-2.46h0l.15-.36Z" style="fill: rgb(255, 255, 255); isolation: isolate; opacity: 0.2; transform-origin: 281.59px 308.2px;" class="animable"></path></g><path d="M286,300.45l.19-.44a11.86,11.86,0,0,1,.92-1.81,3.94,3.94,0,0,1,1.53-1.42,1.15,1.15,0,0,1,1.12,0,1.09,1.09,0,0,1,.41,1.12,2.58,2.58,0,0,1-1.09,1.69,8.88,8.88,0,0,1-2.61.82Zm3.3-3.35a1,1,0,0,0-.44.13,3.43,3.43,0,0,0-1.34,1.25,9.9,9.9,0,0,0-.68,1.29,7.11,7.11,0,0,0,1.95-.64,2.09,2.09,0,0,0,.89-1.35c0-.22,0-.51-.18-.62A.36.36,0,0,0,289.31,297.1Z" style="fill: rgb(64, 123, 255); transform-origin: 288.099px 298.542px;" id="elvb5l9ctcitd" class="animable"></path><path d="M286.56,300.57l-.36-.3a8.7,8.7,0,0,1-1.89-2,2.59,2.59,0,0,1-.15-2,1,1,0,0,1,1.86-.2,4.05,4.05,0,0,1,.66,2,12.45,12.45,0,0,1-.07,2ZM285.1,296h0c-.22,0-.38.25-.46.46a2.08,2.08,0,0,0,.13,1.61,6.66,6.66,0,0,0,1.39,1.5,8.9,8.9,0,0,0,0-1.46,3.52,3.52,0,0,0-.57-1.74C285.53,296.26,285.33,296,285.1,296Z" style="fill: rgb(64, 123, 255); transform-origin: 285.36px 298.046px;" id="el4a2hjuk54uc" class="animable"></path><path d="M228.87,205.25s-2.31,10.81,1.07,20.28l-13.29,48s-34.89,60.6-33.84,60.86,18,10.38,18,10.38,33.86-52.53,38.77-59.52,25.11-60.51,25.11-60.51Z" style="fill: rgb(38, 50, 56); transform-origin: 223.738px 275.01px;" id="elttu3h0uc4g" class="animable"></path><g id="el2xtzvfug13c"><path d="M242,209.67c-.65,1.94-5.37,7.26-6.09,9.48-.21.65-5.37-2.18-5.59-1.5,4.16,5.82,19.8,13.66,30.35,18.51,1.66-4.09,2.1-5.88,3.44-9.39,2.08-5.26,4.35-9.39,5.53-12.42C260.22,212.33,249.81,210.74,242,209.67Z" style="isolation: isolate; opacity: 0.3; transform-origin: 249.98px 222.915px;" class="animable"></path></g><path d="M324.29,219.46c-13.09-6.69-48.93-15.92-48.93-15.92l1.5-10.67-42.12-8.31a100.59,100.59,0,0,0-5,14.76c-5.87,25.37,20,28.44,25.13,28.77l46.8,8.34-24.72,45.2,17.32,6.67s22.4-33.77,33.13-51.87C331.55,229.36,327.85,221.28,324.29,219.46Z" style="fill: rgb(38, 50, 56); transform-origin: 279.057px 236.43px;" id="elmipqbjb2j88" class="animable"></path><g id="elnnq8thme4o"><polygon points="267.39 195.12 249.39 191.64 250.09 188.78 268.03 192.26 267.39 195.12" style="fill: rgb(255, 255, 255); opacity: 0.3; transform-origin: 258.71px 191.95px;" class="animable"></polygon></g><g id="elznn34kc0f"><polygon points="269.39 192.53 276.7 194 276.29 196.92 268.81 195.39 269.39 192.53" style="fill: rgb(255, 255, 255); opacity: 0.3; transform-origin: 272.755px 194.725px;" class="animable"></polygon></g><g id="elsnzxtp7ldt"><polygon points="236.34 186.11 248.72 188.51 247.99 191.35 235.66 188.97 236.34 186.11" style="fill: rgb(255, 255, 255); opacity: 0.3; transform-origin: 242.19px 188.73px;" class="animable"></polygon></g><g id="elbocib9o8u0a"><g style="opacity: 0.3; transform-origin: 234.155px 187.175px;" class="animable"><polygon points="234.39 188.68 233.21 188.38 234.28 185.67 235.1 185.82 234.39 188.68" style="fill: rgb(255, 255, 255); transform-origin: 234.155px 187.175px;" id="elyxpkpfrxnu" class="animable"></polygon></g></g><g id="elvl5e2a6tfrf"><path d="M275.39,203.44l-21.18-6.15c.43.13,13.83,3,21.43,4.35Z" style="isolation: isolate; opacity: 0.3; transform-origin: 264.925px 200.365px;" class="animable"></path></g><g id="eljf81l82jqy"><path d="M301.77,235.92l11.39-3.64s-7.87,7.26-13.94,8.31Z" style="isolation: isolate; opacity: 0.3; transform-origin: 306.19px 236.435px;" class="animable"></path></g><path d="M234.18,123c-.81,0-27.76,19.09-31.55,23.67s-11.34,38.52-11.34,38.52l10.11,2.52,12.33-32.49,23-11.73s5.52-10.52,5.67-11S234.18,123,234.18,123Z" style="fill: rgb(64, 123, 255); transform-origin: 216.846px 155.355px;" id="el5lnkfago1hd" class="animable"></path><g id="eltvhorrmuv2"><path d="M234.18,123c-.81,0-27.76,19.09-31.55,23.67s-11.34,38.52-11.34,38.52l10.11,2.52,12.33-32.49,23-11.73s5.52-10.52,5.67-11S234.18,123,234.18,123Z" style="fill: rgb(255, 255, 255); opacity: 0.7; transform-origin: 216.846px 155.355px;" class="animable"></path></g><path d="M332.11,181l-31.63-21.85s-10.48-29.88-13.73-34.6c-4.22-6.13-12.26-6.54-12.26-6.54l4.88,25.53s2.83,10.2,5.54,17.53c2.79,7.52,3.87,11.61,10.72,15.68,5.94,3.53,31.31,13,31.31,13C326.5,189.56,332.11,181,332.11,181Z" style="fill: rgb(64, 123, 255); transform-origin: 303.3px 153.88px;" id="elfszs7u0v4l" class="animable"></path><g id="eltg7vn6cmh1f"><path d="M332.11,181l-31.63-21.85s-10.48-29.88-13.73-34.6c-4.22-6.13-12.26-6.54-12.26-6.54l4.88,25.53s2.83,10.2,5.54,17.53c2.79,7.52,3.87,11.61,10.72,15.68,5.94,3.53,31.31,13,31.31,13C326.5,189.56,332.11,181,332.11,181Z" style="fill: rgb(255, 255, 255); opacity: 0.7; transform-origin: 303.3px 153.88px;" class="animable"></path></g><path d="M232.45,184.09s-2.16-.14-1.38-2.09a11.06,11.06,0,0,1,3.11-3.74l1.76-12.59L234.18,123l7.88-2,8.67-2,3.7-3.34,10-.47,4.91,2.72h5.16c0,.08,10.14,23.14,7.6,41.55s-4.36,30-4.79,31.22c-.87,2.38-2.77,1.63-2.77,1.63Z" style="fill: rgb(64, 123, 255); transform-origin: 256.704px 153.806px;" id="eluy5uata3mhi" class="animable"></path><g id="elzhg5gyxuyci"><path d="M232.45,184.09s-2.16-.14-1.38-2.09a11.06,11.06,0,0,1,3.11-3.74l1.76-12.59-.88-21.31L234.18,123l7.88-2,8.67-2,3.7-3.34,9.74-.47,5.2,2.72h5.16c0,.08,10.14,23.14,7.6,41.55s-4.36,30-4.79,31.22c-.87,2.38-2.77,1.63-2.77,1.63Z" style="fill: rgb(255, 255, 255); opacity: 0.7; transform-origin: 256.719px 153.806px;" class="animable"></path></g><g id="elflggk4ztc9l"><path d="M259.59,188.76h0a.25.25,0,0,1-.23-.27,375.37,375.37,0,0,0,1.26-61.82.25.25,0,0,1,.23-.26.23.23,0,0,1,.26.23,375.24,375.24,0,0,1-1.25,61.9A.24.24,0,0,1,259.59,188.76Z" style="fill: rgb(38, 50, 56); opacity: 0.1; transform-origin: 260.6px 157.585px;" class="animable"></path></g><g id="el4k40tr6grv6"><path d="M237.56,150.53l.28,6.64s17.42-12.86,20.87-17.16c4.46-5.54,4.8-8.6,4.8-8.6Z" style="isolation: isolate; opacity: 0.2; transform-origin: 250.535px 144.29px;" class="animable"></path></g><path d="M259.34,128.52l2.06,3.23s-29.6,21.86-57.22,23.71l-1.69,9.41,9.51,1.74s42-16.17,51.86-34.66l2.95-4.42-3.15-2.74-1,.64Z" style="fill: rgb(64, 123, 255); transform-origin: 234.65px 145.7px;" id="el665x81ks206" class="animable"></path><g id="elv7egvj8iuc"><path d="M282.53,153.89s.92-13,1.1-19.67a95.6,95.6,0,0,1,1.25,10.26c.27,4.47-1.08,13.6-1.08,13.6Z" style="isolation: isolate; opacity: 0.2; transform-origin: 283.723px 146.15px;" class="animable"></path></g><g id="elp2vl0j6lnl"><path d="M251.2,119.58c.4.75,6.81,8.92,6.81,8.92l5.17-3.61s-4.49,4.93-4.52,5l-1.33.13Z" style="isolation: isolate; opacity: 0.2; transform-origin: 257.19px 124.8px;" class="animable"></path></g><g id="elbkna9tor866"><path d="M263.66,124.79l3.86,1.69a33.4,33.4,0,0,0,1.78-5c.08-1.06,0-2.86,0-2.86h.52a12.73,12.73,0,0,1-.33,5.14c-.81,2.31-1.78,4.54-1.78,4.54Z" style="isolation: isolate; opacity: 0.2; transform-origin: 266.802px 123.46px;" class="animable"></path></g><g id="elbnhqxa5jj0f"><path d="M300.48,159.13c.29,2.08-1,4.89-2.09,6.68,1.31-.49,2.79-1.08,3.42-2.32s1.1-1.33,1-2.72Z" style="isolation: isolate; opacity: 0.2; transform-origin: 300.607px 162.47px;" class="animable"></path></g><path d="M251.2,98.5s-8.82-6.86-8.55-9.28,1.67-1.73,1.67-1.73-3.19-5.7-.33-6.81,3.11-.15,3.11-.15-1.34-4.7.9-6.22c1.71-1.17,2.55,1,2.55,1s3.13-5.33,7.14-5.42c2,.07,3,1.31,2.8,2.85l0,.2s7.94-3.86,11.79-1.8-.95,4.69-.95,4.69,7.85-1.15,9.52,2c1.33,2.47-2.11,4.31-2.11,4.31a7.47,7.47,0,0,1,2.37,1.29,3.12,3.12,0,0,1-1.72,5.47h-.07c-.41,0-1.16.15-1.48-.13,0,0,1.47,2.8-1.41,3.84s-4.4-2.29-4.4-2.29Z" style="fill: rgb(38, 50, 56); transform-origin: 262.42px 84.195px;" id="elhjjmueydmzl" class="animable"></path><path d="M254.65,116.94s.3-4.13-3-14c0,0,.52-.27.52-.28-.47-1.38-.95-2.65-1.4-3.76a.16.16,0,0,1,0,0l14,7.86c-.19,3.21,1.23,9.34,2,11.92l-3.3,6.15Z" style="fill: rgb(233, 179, 118); transform-origin: 258.77px 111.865px;" id="elss36215f94o" class="animable"></path><g id="el9h6ipcromk8"><path d="M265.21,111.2l-7.95-1.43c.82,2.42,3.11,5.22,8.6,5.22A23.37,23.37,0,0,1,265.21,111.2Z" style="opacity: 0.2; transform-origin: 261.56px 112.38px;" class="animable"></path></g><path d="M273.2,82.68c1.75,3.09,2.62,10-2.48,8.79S270.2,77.36,273.2,82.68Z" style="fill: rgb(38, 50, 56); transform-origin: 271.497px 86.5051px;" id="elvlwn73ug0ib" class="animable"></path><path d="M250.34,92.22c1.3,8.63,1.86,13.52,6.64,17.55,7.19,6.06,17.32,1.25,18.63-7.62,1.18-8-1.14-20.75-9.95-23.37A12,12,0,0,0,250.34,92.22Z" style="fill: rgb(233, 179, 118); transform-origin: 263.037px 95.3695px;" id="eluwnfac69fgl" class="animable"></path><path d="M263,93.63c.08.89.61,1.56,1.19,1.5s1-.82.91-1.71-.61-1.56-1.19-1.5S262.9,92.74,263,93.63Z" style="fill: rgb(38, 50, 56); transform-origin: 264.049px 93.525px;" id="el7rfg24er386" class="animable"></path><path d="M271.7,93c.08.89.62,1.57,1.2,1.51s1-.82.91-1.71-.62-1.56-1.2-1.51S271.62,92.15,271.7,93Z" style="fill: rgb(38, 50, 56); transform-origin: 272.756px 92.9005px;" id="el8oq7hizi7by" class="animable"></path><path d="M268.83,92.79s3.2,4.17,4.26,5.88c-1.14,1.23-3.32.9-3.32.9Z" style="fill: rgb(213, 135, 69); transform-origin: 270.96px 96.2001px;" id="el3np0ijvia6m" class="animable"></path><path d="M260.63,88.94a.41.41,0,0,0,.4-.13,3.39,3.39,0,0,1,2.79-1.17.43.43,0,0,0,.48-.35.4.4,0,0,0-.35-.47,4.16,4.16,0,0,0-3.54,1.44.42.42,0,0,0,0,.59A.37.37,0,0,0,260.63,88.94Z" style="fill: rgb(38, 50, 56); transform-origin: 262.298px 87.8766px;" id="elpzkqokguj09" class="animable"></path><path d="M275.25,88.86a.37.37,0,0,0,.19-.14.43.43,0,0,0-.08-.59,4.09,4.09,0,0,0-3.72-.69.42.42,0,0,0-.25.54.41.41,0,0,0,.53.24,3.21,3.21,0,0,1,2.94.59A.42.42,0,0,0,275.25,88.86Z" style="fill: rgb(38, 50, 56); transform-origin: 273.443px 88.0736px;" id="el9keiejoskmw" class="animable"></path><path d="M267.48,105.49Z" style="fill: rgb(38, 50, 56); transform-origin: 267.48px 105.49px;" id="elt4c70z1vnld" class="animable"></path><path d="M268.7,102.07c-1.42-.39-4-1.22-5.34-2.48a4.13,4.13,0,0,0-.31,1,3.67,3.67,0,0,0,.06,1.79c.36,1.19,1.46,2.44,4.32,3.11l.05,0h0s1.54.33,2.16-3.18C269.67,102.31,269.29,102.23,268.7,102.07Z" style="fill: rgb(38, 50, 56); transform-origin: 266.304px 102.544px;" id="elmbnvr5vcnt" class="animable"></path><path d="M268.7,102.07l-.5,1c-2.69-.64-4.5-1.45-5.15-2.46a4.13,4.13,0,0,1,.31-1C264.67,100.85,267.28,101.68,268.7,102.07Z" style="fill: rgb(255, 255, 255); transform-origin: 265.875px 101.34px;" id="ellb19jv7xim" class="animable"></path><path d="M267.43,105.47c-2.86-.67-4-1.92-4.32-3.11a9.47,9.47,0,0,1,3,1.37A3.61,3.61,0,0,1,267.43,105.47Z" style="fill: rgb(220, 87, 83); transform-origin: 265.27px 103.915px;" id="el5zhhly1cq2a" class="animable"></path><path d="M253.22,98.83a4.53,4.53,0,0,0,1.88-1.69,4,4,0,0,0,.19-2.34,22.29,22.29,0,0,0-.45-2.44c.79.36,1.7-.3,2.09-1.07a6.73,6.73,0,0,0,.35-3.81,2.86,2.86,0,0,0,2.71-1,2.17,2.17,0,0,0-.08-2.77,24.84,24.84,0,0,0,9.58-1c-.2.4.07.88.36,1.23a7.54,7.54,0,0,0,4.71,2.61c.27,0,.6,0,.74-.2a.66.66,0,0,0,.05-.42,6.81,6.81,0,0,0-2.63-4.43A15.44,15.44,0,0,0,268,79.18a29.06,29.06,0,0,0-8.59-1.7,17.16,17.16,0,0,0-8.49,1.83,4.24,4.24,0,0,0-1.51,1.17,4.5,4.5,0,0,0-.7,1.67,30,30,0,0,0-.76,11" style="fill: rgb(38, 50, 56); transform-origin: 261.557px 88.1469px;" id="eliwx9dejwyh" class="animable"></path><path d="M247.55,99.76a8.2,8.2,0,0,0,4.5,4.42c2.71,1.06,4.37-1.3,3.89-4-.44-2.44-2.38-5.93-5.22-5.83S246.53,97.27,247.55,99.76Z" style="fill: rgb(233, 179, 118); transform-origin: 251.617px 99.3936px;" id="elxojbg9s6bi" class="animable"></path><g id="el77nyfigbqyh"><path d="M253.51,99.68a.25.25,0,0,1-.24-.2,4.13,4.13,0,0,0-.94-1.88,2.5,2.5,0,0,0-1.43-.88,1.33,1.33,0,0,0-1.36.58.24.24,0,0,1-.34.1.25.25,0,0,1-.1-.34,1.83,1.83,0,0,1,1.88-.83,3,3,0,0,1,1.73,1,4.68,4.68,0,0,1,1,2.11.26.26,0,0,1-.2.3Z" style="opacity: 0.2; transform-origin: 251.392px 97.9402px;" class="animable"></path></g></g><g id="freepik--Hand--inject-4" class="animable animator-active" style="transform-origin: 261.412px 376.59px;"><path d="M380.61,307.9,344,363.4c-13.16,17-24.14,32-44,37.78l-70.44,26.57a25.64,25.64,0,0,0-16.17,19.31L216,461H140.4s1-54.68,5.62-71.17c4.33-15.45,15.12-29,37.27-33.45,18.42-3.73,88.61-16.93,102.22-17.37,5.79-.18,7.22,3.84,6.95,4.29l3.21-.36s37.75-33.31,46-41.37c6.39-6.24,17.06-2.61,17.06-2.61s11.39-10.52,19.53-5.35C378.28,293.57,385.77,298.92,380.61,307.9Z" style="fill: rgb(219, 140, 126); transform-origin: 261.412px 376.59px;" id="elhnafy4gmmj" class="animable"></path><g id="el817vnhlmqe"><path d="M292.46,343.26c4.44,12.68-6.55,20.52-19.35,26.44s-44.88,16.53-44.88,16.53l-1,5.65,5.4-4.34s26.38-9.35,44-17.56c11.2-5.21,15.2-9.44,17.06-13.76a17.33,17.33,0,0,0,.71-11.41L294,342.9Z" style="isolation: isolate; opacity: 0.3; transform-origin: 261.138px 367.39px;" class="animable"></path></g><g id="elo0gmztywpg"><path d="M358.75,298.92s7.15,6.52,1.38,13.49c-4.86,5.87-44.55,56.82-44.55,56.82l5.06-4.15s41-48.36,43.6-52.59C368.07,306.17,362.07,298.85,358.75,298.92Z" style="isolation: isolate; opacity: 0.3; transform-origin: 340.528px 334.075px;" class="animable"></path></g></g><defs>     <filter id="active" height="200%">         <feMorphology in="SourceAlpha" result="DILATED" operator="dilate" radius="2"></feMorphology>                <feFlood flood-color="#32DFEC" flood-opacity="1" result="PINK"></feFlood>        <feComposite in="PINK" in2="DILATED" operator="in" result="OUTLINE"></feComposite>        <feMerge>            <feMergeNode in="OUTLINE"></feMergeNode>            <feMergeNode in="SourceGraphic"></feMergeNode>        </feMerge>    </filter>    <filter id="hover" height="200%">        <feMorphology in="SourceAlpha" result="DILATED" operator="dilate" radius="2"></feMorphology>                <feFlood flood-color="#ff0000" flood-opacity="0.5" result="PINK"></feFlood>        <feComposite in="PINK" in2="DILATED" operator="in" result="OUTLINE"></feComposite>        <feMerge>            <feMergeNode in="OUTLINE"></feMergeNode>            <feMergeNode in="SourceGraphic"></feMergeNode>        </feMerge>            <feColorMatrix type="matrix" values="0   0   0   0   0                0   1   0   0   0                0   0   0   0   0                0   0   0   1   0 "></feColorMatrix>    </filter></defs></svg>