<svg xmlns="http://www.w3.org/2000/svg" xmlns:xlink="http://www.w3.org/1999/xlink" xmlns:svgjs="http://svgjs.com/svgjs" class="animated" id="freepik_stories-collab" viewBox="0 0 500 500" version="1.1"><style>svg#freepik_stories-collab:not(.animated) .animable {opacity: 0;}svg#freepik_stories-collab.animated #freepik--background-complete--inject-2 {animation: 1s 1 forwards cubic-bezier(.36,-0.01,.5,1.38) lightSpeedLeft;animation-delay: 0s;}svg#freepik_stories-collab.animated #freepik--Shadow--inject-2 {animation: 1s 1 forwards cubic-bezier(.36,-0.01,.5,1.38) zoomIn;animation-delay: 0s;}svg#freepik_stories-collab.animated #freepik--speech-bubble--inject-2 {animation: 1s 1 forwards cubic-bezier(.36,-0.01,.5,1.38) slideDown,3s Infinite  linear heartbeat;animation-delay: 0s,1s;}svg#freepik_stories-collab.animated #freepik--character-1--inject-2 {animation: 1s 1 forwards cubic-bezier(.36,-0.01,.5,1.38) slideLeft;animation-delay: 0s;}svg#freepik_stories-collab.animated #freepik--character-2--inject-2 {animation: 1s 1 forwards cubic-bezier(.36,-0.01,.5,1.38) slideRight;animation-delay: 0s;}svg#freepik_stories-collab.animated #freepik--Table--inject-2 {animation: 1s 1 forwards cubic-bezier(.36,-0.01,.5,1.38) fadeIn;animation-delay: 0s;}svg#freepik_stories-collab.animated #freepik--Flower--inject-2 {animation: 1s 1 forwards cubic-bezier(.36,-0.01,.5,1.38) slideUp;animation-delay: 0s;}            @keyframes lightSpeedLeft {              from {                transform: translate3d(-50%, 0, 0) skewX(20deg);                opacity: 0;              }              60% {                transform: skewX(-10deg);                opacity: 1;              }              80% {                transform: skewX(2deg);              }              to {                opacity: 1;                transform: translate3d(0, 0, 0);              }            }                    @keyframes zoomIn {                0% {                    opacity: 0;                    transform: scale(0.5);                }                100% {                    opacity: 1;                    transform: scale(1);                }            }                    @keyframes slideDown {                0% {                    opacity: 0;                    transform: translateY(-30px);                }                100% {                    opacity: 1;                    transform: translateY(0);                }            }                    @keyframes heartbeat {                0% {                    transform: scale(1);                }                10% {                    transform: scale(1.1);                }                30% {                    transform: scale(1);                }                40% {                    transform: scale(1);                }                50% {                    transform: scale(1.1);                }                60% {                    transform: scale(1);                }                100% {                    transform: scale(1);                }            }                    @keyframes slideLeft {                0% {                    opacity: 0;                    transform: translateX(-30px);                }                100% {                    opacity: 1;                    transform: translateX(0);                }            }                    @keyframes slideRight {                0% {                    opacity: 0;                    transform: translateX(30px);                }                100% {                    opacity: 1;                    transform: translateX(0);                }            }                    @keyframes fadeIn {                0% {                    opacity: 0;                }                100% {                    opacity: 1;                }            }                    @keyframes slideUp {                0% {                    opacity: 0;                    transform: translateY(30px);                }                100% {                    opacity: 1;                    transform: inherit;                }            }        </style><g id="freepik--background-complete--inject-2" class="animable" style="transform-origin: 250px 228.23px;"><rect x="174.44" y="391.92" width="26" height="0.25" style="fill: rgb(235, 235, 235); transform-origin: 187.44px 392.045px;" id="eldd2wdmwbrdu" class="animable"/><rect x="52.46" y="389.21" width="54.1" height="0.25" style="fill: rgb(235, 235, 235); transform-origin: 79.51px 389.335px;" id="els9j4yaf3l6f" class="animable"/><rect x="147.12" y="401.21" width="26.32" height="0.25" style="fill: rgb(235, 235, 235); transform-origin: 160.28px 401.335px;" id="elhio59466bje" class="animable"/><rect x="258.23" y="399.53" width="38.83" height="0.25" style="fill: rgb(235, 235, 235); transform-origin: 277.645px 399.655px;" id="ele1x9hpeqtoj" class="animable"/><rect x="305.96" y="399.53" width="10.69" height="0.25" style="fill: rgb(235, 235, 235); transform-origin: 311.305px 399.655px;" id="eltgm53cb57id" class="animable"/><rect x="395.35" y="395.31" width="54.56" height="0.25" style="fill: rgb(235, 235, 235); transform-origin: 422.63px 395.435px;" id="elulq0pc3i3y" class="animable"/><rect x="65.98" y="81.06" width="89.61" height="193.79" style="fill: rgb(230, 230, 230); transform-origin: 110.785px 177.955px;" id="elxb78oo425i8" class="animable"/><rect x="69.41" y="81.06" width="89.61" height="193.79" style="fill: rgb(245, 245, 245); transform-origin: 114.215px 177.955px;" id="el9an894uzyel" class="animable"/><g id="elrp7kj7avk4"><rect x="23.07" y="139.31" width="182.3" height="77.3" style="fill: rgb(255, 255, 255); transform-origin: 114.22px 177.96px; transform: rotate(90deg);" class="animable"/></g><g id="elxrq0jrmqxsj"><rect x="60.42" y="176.66" width="182.3" height="2.59" style="fill: rgb(230, 230, 230); transform-origin: 151.57px 177.955px; transform: rotate(90deg);" class="animable"/></g><rect x="71.96" y="245.49" width="84.52" height="7.71" style="fill: rgb(245, 245, 245); transform-origin: 114.22px 249.345px;" id="elhwa683vapdn" class="animable"/><rect x="71.96" y="225.15" width="84.52" height="7.71" style="fill: rgb(245, 245, 245); transform-origin: 114.22px 229.005px;" id="el7xndhg5pka4" class="animable"/><rect x="189.25" y="81.06" width="89.61" height="193.79" style="fill: rgb(230, 230, 230); transform-origin: 234.055px 177.955px;" id="elsvkco4qet5s" class="animable"/><rect x="192.68" y="81.06" width="89.61" height="193.79" style="fill: rgb(245, 245, 245); transform-origin: 237.485px 177.955px;" id="el821jium0gos" class="animable"/><g id="elhxyhiv99hf"><rect x="146.34" y="139.31" width="182.3" height="77.3" style="fill: rgb(255, 255, 255); transform-origin: 237.49px 177.96px; transform: rotate(90deg);" class="animable"/></g><g id="el58b0qamy633"><rect x="183.69" y="176.66" width="182.3" height="2.59" style="fill: rgb(230, 230, 230); transform-origin: 274.84px 177.955px; transform: rotate(90deg);" class="animable"/></g><rect x="195.23" y="245.49" width="84.52" height="7.71" style="fill: rgb(245, 245, 245); transform-origin: 237.49px 249.345px;" id="el7w6f9o7uzww" class="animable"/><rect x="195.23" y="225.15" width="84.52" height="7.71" style="fill: rgb(245, 245, 245); transform-origin: 237.49px 229.005px;" id="elkvlr5co7axo" class="animable"/><path d="M346.41,219.74c13.29,3.45,27.75,14.49,31.86,25.41q1.73-14.37,4.65-28.59a22.31,22.31,0,0,1-3.5,3.41c-18.53,15.75-29.15-19.71-21.76-46.53,12.75,5.08,25.71,17.87,28.42,29.24q3.53-14.09,8.22-27.9a23,23,0,0,1-3.91,3c-20.37,13.4-26.48-23.23-15.69-49.14,12,6.65,23.25,21,24.49,32.72q4.9-12.68,10.83-25c-14-.26-8.17-26.77,4.39-41.42,9.75,13.21,15.8,37.25-.09,40.94q-2.29,4.68-4.43,9.41c9.3-7.52,27.4-7,39.82-1.26-11.2,18.17-35.76,40.6-44.3,19.07a20.63,20.63,0,0,1-1.11-4.73q-5.4,13.43-9.65,27.2c8.26-8.53,26.25-10.22,39.29-6.07-8.74,19.21-30.28,44.37-41.47,24.17a19.72,19.72,0,0,1-1.69-4.53q-3.67,13.9-6.15,28c7.12-9.45,24.75-13.32,38.2-10.83-6.25,20-24.49,47.6-38.11,29a19.54,19.54,0,0,1-2.24-4.27q-1.91,14.2-2.62,28.53c5.89-10.26,22.9-16.26,36.56-15.46-3.7,20.58-18.4,50.26-34.22,33.47l0,0a3.84,3.84,0,0,0-5.9.06l-.49.61q-.07-14.49,1.08-28.93a23.77,23.77,0,0,1-3.06,3.81C357.37,281,342.43,247.14,346.41,219.74Z" style="fill: rgb(245, 245, 245); transform-origin: 397.735px 193.733px;" id="elgtqosubp9ya" class="animable"/><path d="M396.85,241.71c-8.76,2.79-18.12,10.78-20.58,18.36q-1.51-9.73-3.81-19.33a14.82,14.82,0,0,0,2.41,2.2c12.73,10.13,18.93-14.38,13.34-32.42-8.36,3.88-16.68,13-18.2,20.86q-2.7-9.48-6.16-18.75a14.68,14.68,0,0,0,2.67,1.89c13.9,8.47,17.06-16.69,9.22-34-7.83,4.92-14.95,15.08-15.49,23.09q-3.57-8.48-7.83-16.68c9.29-.63,4.78-18.51-3.95-28.08-6.16,9.32-9.59,25.9,1.08,27.89q1.63,3.12,3.18,6.28c-6.38-4.83-18.42-3.88-26.54.44,7.91,12,24.81,26.5,30,11.55a14.66,14.66,0,0,0,.62-3.26q3.93,9,7.1,18.22c-5.71-5.54-17.73-6.11-26.31-2.86,6.3,12.82,21.26,29.26,28.21,15.13a13.58,13.58,0,0,0,1-3.14q2.79,9.34,4.79,18.9c-5-6.21-16.8-8.27-25.7-6.13,4.66,13.44,17.49,31.64,26.09,18.52a13.5,13.5,0,0,0,1.39-3q1.62,9.61,2.45,19.36c-4.17-6.8-15.65-10.34-24.72-9.34,3,13.9,13.5,33.66,23.61,21.69l0,0a2.53,2.53,0,0,1,3.93-.15l.35.4q-.33-9.87-1.44-19.68a15.36,15.36,0,0,0,2.13,2.49C391.07,283.82,400.17,260.26,396.85,241.71Z" style="fill: rgb(235, 235, 235); transform-origin: 361.866px 225.822px;" id="elp4f5ojbjat" class="animable"/><path d="M419.3,274.28s-.94,108.12-36.77,108.12-36.77-108.12-36.77-108.12Z" style="fill: rgb(240, 240, 240); transform-origin: 382.53px 328.34px;" id="el7eoflmfl3pm" class="animable"/><g id="el9htnlvs2ns"><rect x="97.64" y="288.89" width="193.95" height="65.99" style="fill: rgb(245, 245, 245); transform-origin: 194.615px 321.885px; transform: rotate(180deg);" class="animable"/></g><g id="el4i98fy6arl7"><rect x="166.95" y="230.24" width="55.32" height="183.28" style="fill: rgb(235, 235, 235); transform-origin: 194.61px 321.88px; transform: rotate(90deg);" class="animable"/></g><g id="elxo8qa253z3j"><rect x="136.26" y="260.94" width="55.32" height="121.89" style="fill: rgb(230, 230, 230); transform-origin: 163.92px 321.885px; transform: rotate(90deg);" class="animable"/></g><g id="elg7qxfet35u"><rect x="155.92" y="280.6" width="55.32" height="82.57" style="fill: rgb(224, 224, 224); transform-origin: 183.58px 321.885px; transform: rotate(90deg);" class="animable"/></g><g id="elff72j9g4jii"><rect x="269.83" y="321.04" width="18.57" height="1.68" style="fill: rgb(224, 224, 224); transform-origin: 279.115px 321.88px; transform: rotate(90deg);" class="animable"/></g><g id="el0ztx71nipk1"><rect x="192.44" y="204.75" width="4.35" height="183.28" style="fill: rgb(224, 224, 224); transform-origin: 194.615px 296.39px; transform: rotate(90deg);" class="animable"/></g><rect x="70.77" y="288.89" width="26.87" height="65.99" style="fill: rgb(230, 230, 230); transform-origin: 84.205px 321.885px;" id="el4yqfpvn6bih" class="animable"/><polygon points="100.24 382.4 97.64 382.4 97.64 354.88 102.13 354.88 100.24 382.4" style="fill: rgb(245, 245, 245); transform-origin: 99.885px 368.64px;" id="els38hbv652bs" class="animable"/><polygon points="288.99 382.4 291.59 382.4 291.59 354.88 287.1 354.88 288.99 382.4" style="fill: rgb(245, 245, 245); transform-origin: 289.345px 368.64px;" id="elefoq54xnooh" class="animable"/><polygon points="73.37 382.4 70.77 382.4 70.77 354.88 75.26 354.88 73.37 382.4" style="fill: rgb(230, 230, 230); transform-origin: 73.015px 368.64px;" id="ellz4kns6ru2e" class="animable"/><polygon points="262.12 382.4 264.72 382.4 264.72 354.88 260.23 354.88 262.12 382.4" style="fill: rgb(230, 230, 230); transform-origin: 262.475px 368.64px;" id="elukqalh9qfcd" class="animable"/></g><g id="freepik--Shadow--inject-2" class="animable" style="transform-origin: 250px 416.24px;"><ellipse id="freepik--path--inject-2" cx="250" cy="416.24" rx="193.89" ry="11.32" style="fill: rgb(245, 245, 245); transform-origin: 250px 416.24px;" class="animable"/></g><g id="freepik--speech-bubble--inject-2" class="animable animator-active" style="transform-origin: 252.49px 99.8754px;"><path d="M286.28,133.53C305,127.14,318,114.72,319.1,99.59c1.73-23.82-26.69-45.3-63.48-48s-68,14.49-69.74,38.32c-1.41,19.45,17.27,37.33,44.19,44.69-7,7.8-18.47,10.67-18.47,10.67S233.51,144,241.16,137c2.68.41,5.41.73,8.2.93a98.19,98.19,0,0,0,27.3-1.75c6.95,7.35,24.91,12.26,24.91,12.26S290.61,143,286.28,133.53Z" style="fill: rgb(255, 255, 255); transform-origin: 252.49px 99.8754px;" id="elto3bs2eo8hc" class="animable"/><g id="elbwfmbtktyqe"><path d="M286.28,133.53C305,127.14,318,114.72,319.1,99.59c1.73-23.82-26.69-45.3-63.48-48s-68,14.49-69.74,38.32c-1.41,19.45,17.27,37.33,44.19,44.69-7,7.8-18.47,10.67-18.47,10.67S233.51,144,241.16,137c2.68.41,5.41.73,8.2.93a98.19,98.19,0,0,0,27.3-1.75c6.95,7.35,24.91,12.26,24.91,12.26S290.61,143,286.28,133.53Z" style="fill: rgb(64, 123, 255); opacity: 0.3; transform-origin: 252.49px 99.8754px;" class="animable"/></g><path d="M292,115.76l-7.9.64a8.72,8.72,0,1,1-16.7,4.18,8.64,8.64,0,0,1,.24-2.84l-13.36,1.09-1.09-13.37a8.29,8.29,0,0,0,6.26-.82A8.91,8.91,0,0,0,264,96.1,8.71,8.71,0,0,0,251.82,89l-1.09-13.36,13.37-1.09a8.49,8.49,0,0,1-.72-3.82,8.81,8.81,0,0,1,7.95-8.34,8.71,8.71,0,0,1,9.22,10.82l7.91-.64a5.48,5.48,0,0,1,5.9,5L297,109.87A5.47,5.47,0,0,1,292,115.76Z" style="fill: rgb(38, 50, 56); transform-origin: 273.874px 95.4595px;" id="el6jwy6bxw2vi" class="animable"/><path d="M255.6,88.29a8.62,8.62,0,0,0-3.78.72l-1.09-13.36-13.35,1.08a8.62,8.62,0,0,1,.71,3,8.73,8.73,0,0,1-17.41,1.17,8.66,8.66,0,0,1,.23-2.84l-7.9.65a5.46,5.46,0,0,0-5,5.89l2.62,32.28a5.48,5.48,0,0,0,5.9,5l7.91-.65a8.59,8.59,0,0,0,.27,5.16,8.72,8.72,0,1,0,16.18-6.5l13.37-1.08-1.09-13.37a8.64,8.64,0,0,0,2.84.24,8.73,8.73,0,0,0,8-9.4A8.83,8.83,0,0,0,255.6,88.29Z" style="fill: rgb(64, 123, 255); transform-origin: 236.015px 103.832px;" id="el875da0l2iyv" class="animable"/><path d="M238.87,61.41a24.93,24.93,0,0,0-2.47-2.06l.64-.9a23.88,23.88,0,0,1,2.59,2.16Z" style="fill: rgb(38, 50, 56); transform-origin: 238.015px 59.93px;" id="elkt1bldl80p" class="animable"/><path d="M245.55,70.6a23.47,23.47,0,0,0-3.82-6.1l.85-.7a24.73,24.73,0,0,1,4,6.42Z" style="fill: rgb(64, 123, 255); transform-origin: 244.155px 67.2px;" id="elt0hju6dzyak" class="animable"/><path d="M252.92,68.29l-1.1,0a19,19,0,0,1,4.44-12.08l.85.71A17.91,17.91,0,0,0,252.92,68.29Z" style="fill: rgb(38, 50, 56); transform-origin: 254.465px 62.25px;" id="elwwd95yhdjp" class="animable"/><path d="M247.67,63.13c0-.05-1.17-5.49-3.34-8.73l.91-.62c2.3,3.42,3.46,8.9,3.51,9.13Z" style="fill: rgb(64, 123, 255); transform-origin: 246.54px 58.455px;" id="el9uib9s4zqce" class="animable"/><path d="M263,133.77a25,25,0,0,1-2.34-2.43l.84-.71a24.88,24.88,0,0,0,2.24,2.31Z" style="fill: rgb(38, 50, 56); transform-origin: 262.2px 132.2px;" id="elu270yyaob5" class="animable"/><path d="M259.13,129.62a24.36,24.36,0,0,1-3.91-7.69l1.07-.28A23.57,23.57,0,0,0,260,129Z" style="fill: rgb(64, 123, 255); transform-origin: 257.61px 125.635px;" id="elgnb2ejo0vxv" class="animable"/><path d="M251.75,128.75a11,11,0,0,1,.82-6.74l1,.49a10.19,10.19,0,0,0-.73,6Z" style="fill: rgb(64, 123, 255); transform-origin: 252.558px 125.38px;" id="elwbixm3nkqck" class="animable"/></g><g id="freepik--character-1--inject-2" class="animable" style="transform-origin: 200.723px 274.674px;"><path d="M183.08,324.21c-6.43-35.89-9.11-79.16-9.11-79.16l34.27-.54s-2.93,58.32-4.35,82.75c-1.47,25.39-2.5,74.27-2.5,74.27H189.57S179.51,355.61,183.08,324.21Z" style="fill: rgb(38, 50, 56); transform-origin: 191.105px 323.02px;" id="elguxnyaqpe2w" class="animable"/><g id="elkjnayowujvr"><path d="M190,254.82s-4.65,34.84-8.47,60.38c-3.39-21.47-5.54-44-6.66-57.59Z" style="opacity: 0.2; transform-origin: 182.435px 285.01px;" class="animable"/></g><path d="M217.27,413.53s-15.87-3.73-16.57-9.14l-10.12,1.31-1.11,10.54h4.18l.67-1.31,1.4,1.31c14.2,0,19.46-.15,22.09-1A1.66,1.66,0,0,0,217.27,413.53Z" style="fill: rgb(38, 50, 56); transform-origin: 203.669px 410.315px;" id="el9iqgijvx6mq" class="animable"/><path d="M189.14,407.61c3.8.22,11.39-.34,12.87-1.07s.6-6.62.6-6.62-13.27-1.32-14.44-.59S189.14,407.61,189.14,407.61Z" style="fill: rgb(64, 123, 255); transform-origin: 195.345px 403.384px;" id="el8hvzwu4ij6t" class="animable"/><g id="el6yjwktz4utg"><path d="M189.14,407.61c3.8.22,11.39-.34,12.87-1.07s.6-6.62.6-6.62-13.27-1.32-14.44-.59S189.14,407.61,189.14,407.61Z" style="fill: rgb(255, 255, 255); opacity: 0.3; transform-origin: 195.345px 403.384px;" class="animable"/></g><path d="M151.26,323.19c5.85-36.09,5.66-60.2,11.51-78l33.45-.46S180,302,172.66,325.84s-20.78,75.69-20.78,75.69H141S141.48,351.11,151.26,323.19Z" style="fill: rgb(38, 50, 56); transform-origin: 168.61px 323.13px;" id="eliij14p9jxl" class="animable"/><path d="M163.28,413.53s-12-3.73-12.67-9.14l-10.12,1.31-1.1,10.54H142l.67-1.31,1.4,1.31c14.2,0,17.12-.15,19.75-1A1.66,1.66,0,0,0,163.28,413.53Z" style="fill: rgb(38, 50, 56); transform-origin: 151.634px 410.315px;" id="elyj9ul0ulnsr" class="animable"/><path d="M139.39,407.35c2.33.48,11.16-.08,12.74-.81s1.09-6.91,1.09-6.91-12-1.43-13.29-.7S139.39,407.35,139.39,407.35Z" style="fill: rgb(64, 123, 255); transform-origin: 146.233px 403.126px;" id="elt0o765q3skr" class="animable"/><g id="elal0m14k4yd"><path d="M139.39,407.35c2.33.48,11.16-.08,12.74-.81s1.09-6.91,1.09-6.91-12-1.43-13.29-.7S139.39,407.35,139.39,407.35Z" style="fill: rgb(255, 255, 255); opacity: 0.3; transform-origin: 146.233px 403.126px;" class="animable"/></g><path d="M208.06,181.52l2.87,2.47,3,2.5c2,1.67,4,3.27,6,4.83,1,.77,2,1.52,3,2.23s2,1.41,2.95,2,1.94,1.18,2.82,1.66a16.35,16.35,0,0,0,2.12.95l-1.37-.1c-.19.09.29.1.9,0a13.45,13.45,0,0,0,2.2-.78,45.64,45.64,0,0,0,5.14-2.74c1.78-1,3.56-2.2,5.35-3.39l5.38-3.6.13-.08a4,4,0,0,1,5.56,5.47,63.45,63.45,0,0,1-4.23,5.71,66.5,66.5,0,0,1-4.86,5.27,45,45,0,0,1-5.87,4.84,25,25,0,0,1-3.8,2.16,15.55,15.55,0,0,1-5.59,1.46,4.46,4.46,0,0,1-.9,0l-.47-.07a25.24,25.24,0,0,1-5.61-1.54,41.15,41.15,0,0,1-4.42-2.05,73.14,73.14,0,0,1-7.65-4.69c-2.4-1.65-4.67-3.4-6.88-5.19-1.1-.91-2.2-1.81-3.26-2.76s-2.08-1.87-3.2-2.95a7.91,7.91,0,0,1,10.64-11.7Z" style="fill: rgb(207, 122, 100); transform-origin: 224.82px 195.956px;" id="ele89hd55azld" class="animable"/><path d="M249.79,194.75l8.86-.07-3.06-10.18s-8,1-8.15,5.39Z" style="fill: rgb(206, 122, 99); transform-origin: 253.045px 189.625px;" id="el9ivqhh5xgac" class="animable"/><path d="M265.16,188.16l-1.68-3.38a3.07,3.07,0,0,0-3.65-1.58l-4.24,1.3,3.06,10.18,5.06-2.37A3.08,3.08,0,0,0,265.16,188.16Z" style="fill: rgb(206, 122, 99); transform-origin: 260.534px 188.873px;" id="el27gzec8fblj" class="animable"/><path d="M199.94,176.08a16.4,16.4,0,0,0-4.34,21.32,11.89,11.89,0,0,0,2.05,2.71c3.51,3.33,12.21,6.27,17.92,8.75,7.27-2.59,11-10.29,9.89-14.56-5.53-7.33-15.63-18.07-20.87-19.49C203,174.37,201.47,175,199.94,176.08Z" style="fill: rgb(38, 50, 56); transform-origin: 209.524px 191.764px;" id="el5whsadjkxt7" class="animable"/><path d="M167.92,173.19a149.31,149.31,0,0,1,30.81-.2,17.13,17.13,0,0,1,15.33,17.09c-.05,15.76-2.58,33.17-5.2,57.38-7.46,7.71-47.48-.31-47.48-.31A174.71,174.71,0,0,1,164.62,221c-1.36-10-4.82-21.4-6.77-34.65A11.59,11.59,0,0,1,167.92,173.19Z" style="fill: rgb(64, 123, 255); transform-origin: 185.896px 211.549px;" id="el3yo4sh286kg" class="animable"/><g style="clip-path: url(&quot;#freepik--clip-path--inject-2&quot;); transform-origin: 188.425px 213.456px;" id="el0i7igibpkbjc" class="animable"><g id="el2tm8y3cu667"><g style="opacity: 0.2; transform-origin: 188.425px 213.456px;" class="animable"><path d="M166.22,190a.26.26,0,0,1-.26-.25.26.26,0,0,1,.25-.28,9.19,9.19,0,0,0,5.41-2.16,2.08,2.08,0,0,1-.75-.58,3,3,0,0,1-.52-1.13c-.59-2.15-.06-5,2.07-6.14a1.9,1.9,0,0,1,2.35.16,2,2,0,0,1,.38.93,6.73,6.73,0,0,1-.68,4,9.31,9.31,0,0,1-1.8,2.51l.18,0a5.25,5.25,0,0,0,4.19-1.76,7.24,7.24,0,0,0,1.76-4.34.25.25,0,0,1,.28-.24.27.27,0,0,1,.25.28,7.81,7.81,0,0,1-1.9,4.66,5.73,5.73,0,0,1-4.62,1.93,4.83,4.83,0,0,1-.61-.1,9.87,9.87,0,0,1-6,2.49Zm7.41-10.34a2.07,2.07,0,0,0-.95.27c-1.88,1-2.34,3.63-1.82,5.54a2.46,2.46,0,0,0,.42.92,1.68,1.68,0,0,0,.79.53,9,9,0,0,0,1.92-2.6,6.23,6.23,0,0,0,.64-3.68,1.46,1.46,0,0,0-.26-.68A.94.94,0,0,0,173.63,179.61Z" style="fill: rgb(255, 255, 255); transform-origin: 172.645px 184.564px;" id="eli8qi353fpck" class="animable"/><path d="M188.62,199.89h-.09a7.81,7.81,0,0,1-3.94-3.12,5.75,5.75,0,0,1-.57-5,4.71,4.71,0,0,1,.27-.56,9.83,9.83,0,0,1-.73-6.42.27.27,0,0,1,.52.12,9.29,9.29,0,0,0,.56,5.81,2.1,2.1,0,0,1,.77-.57,2.88,2.88,0,0,1,1.22-.18c2.24,0,4.78,1.32,5.32,3.7a1.9,1.9,0,0,1-.8,2.21,2,2,0,0,1-1,.11,6.78,6.78,0,0,1-3.65-1.77,9.21,9.21,0,0,1-1.91-2.43c0,.06-.05.12-.07.17a5.27,5.27,0,0,0,.52,4.51,7.18,7.18,0,0,0,3.67,2.9.26.26,0,0,1,.16.34A.26.26,0,0,1,188.62,199.89Zm-3.73-8.63a9,9,0,0,0,2,2.57,6.13,6.13,0,0,0,3.36,1.64,1.38,1.38,0,0,0,.72-.06c.52-.23.65-1,.5-1.61-.47-2.09-2.83-3.26-4.81-3.3a2.49,2.49,0,0,0-1,.15A1.68,1.68,0,0,0,184.89,191.26Z" style="fill: rgb(255, 255, 255); transform-origin: 187.683px 192.255px;" id="elcg8tz1ab9ch" class="animable"/><path d="M209.09,193.36a1.4,1.4,0,0,1-1.1-.46,1.86,1.86,0,0,1-.4-.92,6.6,6.6,0,0,1,.58-4,9.47,9.47,0,0,1,1.73-2.56l-.18,0a5.29,5.29,0,0,0-4.14,1.86,7.24,7.24,0,0,0-1.65,4.39.27.27,0,0,1-.28.25.27.27,0,0,1-.25-.28,7.75,7.75,0,0,1,1.78-4.7,5.71,5.71,0,0,1,4.57-2,3.64,3.64,0,0,1,.62.08,9.77,9.77,0,0,1,5.9-2.63.25.25,0,0,1,.28.24.27.27,0,0,1-.24.28,9.33,9.33,0,0,0-5.37,2.3,2,2,0,0,1,.78.56,3,3,0,0,1,.54,1.11c.64,2.14.18,4.95-1.92,6.19A2.62,2.62,0,0,1,209.09,193.36Zm1.42-7.82a9,9,0,0,0-1.86,2.64,6.26,6.26,0,0,0-.55,3.7,1.63,1.63,0,0,0,.28.67,1.41,1.41,0,0,0,1.69,0c1.85-1.08,2.25-3.68,1.69-5.58a2.59,2.59,0,0,0-.44-.92A1.73,1.73,0,0,0,210.51,185.54Z" style="fill: rgb(255, 255, 255); transform-origin: 209.975px 187.875px;" id="elnzttdesnns" class="animable"/><path d="M198.81,188.1h-.05a.27.27,0,0,1-.21-.31,9.33,9.33,0,0,0-.7-5.79,2.23,2.23,0,0,1-.76.58,2.93,2.93,0,0,1-1.22.22h0c-2.23,0-4.78-1.23-5.37-3.58a1.89,1.89,0,0,1,.75-2.23,2,2,0,0,1,1-.13,6.66,6.66,0,0,1,3.69,1.69,9.4,9.4,0,0,1,2,2.37l.06-.17a5.24,5.24,0,0,0-.63-4.5,7.21,7.21,0,0,0-3.75-2.8.27.27,0,0,1-.16-.34.26.26,0,0,1,.34-.16,7.7,7.7,0,0,1,4,3,5.7,5.7,0,0,1,.69,5,3.87,3.87,0,0,1-.25.56,9.83,9.83,0,0,1,.88,6.41A.28.28,0,0,1,198.81,188.1Zm-6.87-10.73a1.23,1.23,0,0,0-.5.09c-.51.24-.62,1-.46,1.62.52,2.07,2.89,3.18,4.86,3.18h0a2.35,2.35,0,0,0,1-.17,1.7,1.7,0,0,0,.72-.63,9,9,0,0,0-2-2.52,6.14,6.14,0,0,0-3.39-1.56Z" style="fill: rgb(255, 255, 255); transform-origin: 194.85px 180.518px;" id="elgeyu50npan" class="animable"/><path d="M170.55,217a.27.27,0,0,1,0-.53,9.25,9.25,0,0,0,5.42-2.16,2.12,2.12,0,0,1-.76-.58,3,3,0,0,1-.52-1.12c-.59-2.16-.06-5,2.08-6.14a1.87,1.87,0,0,1,2.34.15,2,2,0,0,1,.38.93,6.73,6.73,0,0,1-.68,4A9.09,9.09,0,0,1,177,214l.18,0a5.25,5.25,0,0,0,4.19-1.76,7.21,7.21,0,0,0,1.76-4.34.25.25,0,0,1,.28-.24.27.27,0,0,1,.25.28,7.78,7.78,0,0,1-1.9,4.66,5.73,5.73,0,0,1-4.62,1.93,5.14,5.14,0,0,1-.61-.1,9.86,9.86,0,0,1-6,2.49ZM178,206.65a2.06,2.06,0,0,0-1,.26c-1.88,1-2.34,3.63-1.82,5.54a2.46,2.46,0,0,0,.42.92,1.68,1.68,0,0,0,.79.53,8.91,8.91,0,0,0,1.92-2.6,6.23,6.23,0,0,0,.64-3.68,1.46,1.46,0,0,0-.26-.68A.94.94,0,0,0,178,206.65Z" style="fill: rgb(255, 255, 255); transform-origin: 176.996px 211.564px;" id="eluhmmfu5zxtg" class="animable"/><path d="M193.55,228h-.1a7.85,7.85,0,0,1-3.94-3.12,5.71,5.71,0,0,1-.56-5,4.56,4.56,0,0,1,.26-.56,9.82,9.82,0,0,1-.72-6.42.26.26,0,0,1,.32-.19.25.25,0,0,1,.19.31,9.3,9.3,0,0,0,.57,5.81,2.12,2.12,0,0,1,.77-.57,3,3,0,0,1,1.22-.18c2.23,0,4.78,1.32,5.32,3.7a1.89,1.89,0,0,1-.81,2.21,1.87,1.87,0,0,1-1,.11,6.67,6.67,0,0,1-3.65-1.77,9.42,9.42,0,0,1-1.91-2.43c0,.06,0,.12-.07.17a5.27,5.27,0,0,0,.52,4.51,7.2,7.2,0,0,0,3.68,2.9.25.25,0,0,1,.15.34A.25.25,0,0,1,193.55,228Zm-3.73-8.63a8.65,8.65,0,0,0,2,2.57,6.2,6.2,0,0,0,3.35,1.65,1.53,1.53,0,0,0,.73-.07c.52-.23.64-1,.5-1.61-.47-2.09-2.83-3.26-4.81-3.3a2.39,2.39,0,0,0-1,.15A1.71,1.71,0,0,0,189.82,219.37Z" style="fill: rgb(255, 255, 255); transform-origin: 192.611px 220.351px;" id="elubh6c8jjr98" class="animable"/><path d="M174.57,232.89a.27.27,0,0,1-.24-.17,7.8,7.8,0,0,1-.3-5,5.74,5.74,0,0,1,3.35-3.73,3.8,3.8,0,0,1,.59-.17,9.88,9.88,0,0,1,4.31-4.82.27.27,0,1,1,.25.47,9.34,9.34,0,0,0-4,4.28h0a2.2,2.2,0,0,1,.93.2,2.91,2.91,0,0,1,1,.79c1.46,1.7,2.19,4.45.77,6.44A1.92,1.92,0,0,1,179,232a2,2,0,0,1-.74-.68,6.66,6.66,0,0,1-1.1-3.9,9.26,9.26,0,0,1,.53-3l-.17.06a5.26,5.26,0,0,0-3,3.39,7.27,7.27,0,0,0,.28,4.67.26.26,0,0,1-.15.34Zm3.77-8.62a8.94,8.94,0,0,0-.61,3.18,6.12,6.12,0,0,0,1,3.59,1.42,1.42,0,0,0,.53.5c.52.24,1.16-.17,1.54-.69,1.24-1.75.55-4.28-.74-5.79a2.49,2.49,0,0,0-.78-.65A1.79,1.79,0,0,0,178.34,224.27Z" style="fill: rgb(255, 255, 255); transform-origin: 178.234px 225.917px;" id="el2hggsbd593l" class="animable"/><path d="M173.33,250.46h0a7.71,7.71,0,0,1-4.66-1.86,5.72,5.72,0,0,1-2-4.61,4.74,4.74,0,0,1,.09-.61,9.91,9.91,0,0,1-2.52-6,.25.25,0,0,1,.25-.27.27.27,0,0,1,.28.25,9.36,9.36,0,0,0,2.19,5.4,2.12,2.12,0,0,1,.58-.76,3.08,3.08,0,0,1,1.12-.53c2.15-.59,4.95-.08,6.15,2a1.89,1.89,0,0,1-.14,2.35,2.11,2.11,0,0,1-.93.39,6.74,6.74,0,0,1-4-.67,9.41,9.41,0,0,1-2.52-1.77,1.1,1.1,0,0,0,0,.18A5.27,5.27,0,0,0,169,248.2a7.27,7.27,0,0,0,4.35,1.74.25.25,0,0,1,.24.28A.25.25,0,0,1,173.33,250.46Zm-6-7.22a9,9,0,0,0,2.62,1.91,6.22,6.22,0,0,0,3.68.62,1.52,1.52,0,0,0,.68-.27c.43-.37.33-1.13,0-1.69-1.05-1.87-3.64-2.32-5.55-1.79a2.66,2.66,0,0,0-.93.42A1.92,1.92,0,0,0,167.37,243.24Z" style="fill: rgb(255, 255, 255); transform-origin: 169.697px 243.785px;" id="elbhejlp9hsdd" class="animable"/><path d="M165.06,227.48h0a7.78,7.78,0,0,1-4.66-1.87,5.71,5.71,0,0,1-2-4.61,5.31,5.31,0,0,1,.09-.61,9.91,9.91,0,0,1-2.52-5.95.27.27,0,0,1,.25-.28.28.28,0,0,1,.28.25,9.36,9.36,0,0,0,2.19,5.41,2.24,2.24,0,0,1,.58-.77,3,3,0,0,1,1.12-.52c2.15-.6,5-.09,6.15,2a1.89,1.89,0,0,1-.14,2.35,2,2,0,0,1-.93.38,6.66,6.66,0,0,1-4-.66,9.22,9.22,0,0,1-2.52-1.78,1.41,1.41,0,0,0,0,.18,5.27,5.27,0,0,0,1.78,4.18,7.2,7.2,0,0,0,4.35,1.73.27.27,0,0,1,.25.28A.27.27,0,0,1,165.06,227.48Zm-6-7.23a8.79,8.79,0,0,0,2.62,1.91,6.15,6.15,0,0,0,3.68.62,1.41,1.41,0,0,0,.68-.27c.43-.36.33-1.12,0-1.68-1-1.87-3.64-2.32-5.55-1.79a2.46,2.46,0,0,0-.92.42A1.81,1.81,0,0,0,159.1,220.25Z" style="fill: rgb(255, 255, 255); transform-origin: 161.427px 220.82px;" id="eldt60jss6lor" class="animable"/><path d="M213.42,217.87a1.43,1.43,0,0,1-1.1-.45,1.86,1.86,0,0,1-.4-.92,6.71,6.71,0,0,1,.58-4,9.42,9.42,0,0,1,1.73-2.55l-.18,0a5.29,5.29,0,0,0-4.14,1.86,7.21,7.21,0,0,0-1.65,4.38.26.26,0,0,1-.28.25.27.27,0,0,1-.25-.27,7.72,7.72,0,0,1,1.78-4.7,5.75,5.75,0,0,1,4.57-2.05,5.15,5.15,0,0,1,.62.09,9.84,9.84,0,0,1,5.9-2.64.26.26,0,0,1,.28.25.27.27,0,0,1-.24.28,9.26,9.26,0,0,0-5.36,2.29,2.21,2.21,0,0,1,.77.57,2.85,2.85,0,0,1,.54,1.11c.64,2.14.18,4.95-1.92,6.18A2.52,2.52,0,0,1,213.42,217.87Zm1.43-7.82A8.92,8.92,0,0,0,213,212.7a6.32,6.32,0,0,0-.55,3.69,1.51,1.51,0,0,0,.29.68c.37.42,1.13.31,1.68,0,1.85-1.09,2.25-3.69,1.69-5.58a2.59,2.59,0,0,0-.44-.92A1.86,1.86,0,0,0,214.85,210.05Z" style="fill: rgb(255, 255, 255); transform-origin: 214.305px 212.37px;" id="el6455lxaq09q" class="animable"/><path d="M212.15,236.09a.27.27,0,0,1-.26-.25,9.25,9.25,0,0,0-2.27-5.37,2.21,2.21,0,0,1-.57.77,3,3,0,0,1-1.11.54c-2.14.63-4.95.16-6.18-1.95a1.89,1.89,0,0,1,.11-2.35,1.86,1.86,0,0,1,.92-.4,6.62,6.62,0,0,1,4,.6,9.45,9.45,0,0,1,2.55,1.74c0-.06,0-.12,0-.17a5.31,5.31,0,0,0-1.84-4.16,7.33,7.33,0,0,0-4.38-1.67.26.26,0,1,1,0-.52,7.65,7.65,0,0,1,4.69,1.8,5.68,5.68,0,0,1,2,4.58,3.66,3.66,0,0,1-.08.61,9.85,9.85,0,0,1,2.61,5.91.27.27,0,0,1-.25.29Zm-8.33-8.58a4.31,4.31,0,0,0-.93.09,1.36,1.36,0,0,0-.67.28c-.43.37-.32,1.13,0,1.68,1.08,1.86,3.68,2.27,5.57,1.71a2.56,2.56,0,0,0,.92-.43,1.86,1.86,0,0,0,.51-.8,8.78,8.78,0,0,0-2.64-1.88A6.8,6.8,0,0,0,203.82,227.51Z" style="fill: rgb(255, 255, 255); transform-origin: 206.872px 229.495px;" id="el9u846vybsq" class="animable"/><path d="M204.41,250.5a1.36,1.36,0,0,1-1-.39,1.93,1.93,0,0,1-.47-.89,6.72,6.72,0,0,1,.32-4,9.28,9.28,0,0,1,1.55-2.67h-.18a5.22,5.22,0,0,0-4,2.14,7.22,7.22,0,0,0-1.35,4.48.25.25,0,0,1-.26.27.26.26,0,0,1-.26-.26,7.73,7.73,0,0,1,1.45-4.81,5.73,5.73,0,0,1,4.42-2.35,4.59,4.59,0,0,1,.62,0,9.85,9.85,0,0,1,5.71-3,.26.26,0,1,1,.07.52,9.31,9.31,0,0,0-5.19,2.65,2.26,2.26,0,0,1,.81.51,3.16,3.16,0,0,1,.62,1.08c.78,2.09.52,4.92-1.5,6.3A2.53,2.53,0,0,1,204.41,250.5Zm1-7.91a9.06,9.06,0,0,0-1.68,2.77,6.18,6.18,0,0,0-.3,3.72,1.47,1.47,0,0,0,.33.66,1.4,1.4,0,0,0,1.68-.13c1.77-1.21,2-3.83,1.3-5.68a2.4,2.4,0,0,0-.5-.89A1.83,1.83,0,0,0,205.43,242.59Z" style="fill: rgb(255, 255, 255); transform-origin: 205.006px 244.759px;" id="elj7t3tdfpf6j" class="animable"/><path d="M183.58,253.93a.27.27,0,0,1-.25-.17.26.26,0,0,1,.15-.34,9.25,9.25,0,0,0,4.43-3.79,2.2,2.2,0,0,1-.9-.31,3,3,0,0,1-.86-.89c-1.24-1.86-1.64-4.68,0-6.48a1.63,1.63,0,0,1,2.93.15,6.63,6.63,0,0,1,.63,4,9.28,9.28,0,0,1-.88,3l.17,0a5.25,5.25,0,0,0,3.4-3,7.2,7.2,0,0,0,.27-4.68.27.27,0,0,1,.19-.32.26.26,0,0,1,.32.19,7.77,7.77,0,0,1-.29,5,5.74,5.74,0,0,1-3.76,3.31,3.5,3.5,0,0,1-.61.11,9.85,9.85,0,0,1-4.85,4.27Zm4.15-12.25a1.77,1.77,0,0,0-1.19.62c-1.44,1.59-1,4.19.05,5.83a2.61,2.61,0,0,0,.7.75,1.76,1.76,0,0,0,.92.24,8.88,8.88,0,0,0,1-3.08,6.23,6.23,0,0,0-.57-3.69,1.57,1.57,0,0,0-.47-.56A.78.78,0,0,0,187.73,241.68Z" style="fill: rgb(255, 255, 255); transform-origin: 188.387px 247.536px;" id="elkpqaxg730y" class="animable"/><path d="M203.14,212.61h0a.26.26,0,0,1-.2-.32,9.34,9.34,0,0,0-.71-5.79,2.13,2.13,0,0,1-.76.59,2.91,2.91,0,0,1-1.22.21h0c-2.23,0-4.78-1.22-5.37-3.57a1.89,1.89,0,0,1,.75-2.23,2,2,0,0,1,1-.13,6.79,6.79,0,0,1,3.7,1.68,9.44,9.44,0,0,1,2,2.38l.06-.17a5.24,5.24,0,0,0-.63-4.5A7.24,7.24,0,0,0,197.9,198a.26.26,0,0,1-.17-.33.28.28,0,0,1,.34-.17,7.83,7.83,0,0,1,4,3,5.71,5.71,0,0,1,.68,5,4,4,0,0,1-.25.57,9.81,9.81,0,0,1,.88,6.4A.25.25,0,0,1,203.14,212.61Zm-6.87-10.73a1.24,1.24,0,0,0-.5.1c-.51.24-.62,1-.46,1.62.53,2.07,2.89,3.18,4.86,3.18h0a2.77,2.77,0,0,0,1-.17,1.77,1.77,0,0,0,.72-.63,9.06,9.06,0,0,0-2-2.53,6.13,6.13,0,0,0-3.39-1.55Z" style="fill: rgb(255, 255, 255); transform-origin: 199.17px 205.05px;" id="elf5v0zmd6gbk" class="animable"/><path d="M169.11,209.64h-.06a.27.27,0,0,1-.2-.32,9.27,9.27,0,0,0-.71-5.79,2.13,2.13,0,0,1-.76.59,3.05,3.05,0,0,1-1.21.22h0c-2.22,0-4.77-1.23-5.37-3.58a1.9,1.9,0,0,1,.75-2.23,2,2,0,0,1,1-.13,6.75,6.75,0,0,1,3.69,1.68,9.24,9.24,0,0,1,2,2.38c0-.06.05-.12.07-.17a5.3,5.3,0,0,0-.63-4.5,7.31,7.31,0,0,0-3.75-2.81.25.25,0,0,1-.16-.33.27.27,0,0,1,.33-.17,7.83,7.83,0,0,1,4,3,5.71,5.71,0,0,1,.68,5,3.1,3.1,0,0,1-.25.57,9.88,9.88,0,0,1,.89,6.4A.27.27,0,0,1,169.11,209.64Zm-6.88-10.73a1.19,1.19,0,0,0-.49.1c-.51.24-.62,1-.46,1.62.52,2.07,2.88,3.18,4.85,3.18h0a2.75,2.75,0,0,0,1-.17,1.8,1.8,0,0,0,.71-.63,9,9,0,0,0-2-2.53,6.2,6.2,0,0,0-3.4-1.55Z" style="fill: rgb(255, 255, 255); transform-origin: 165.148px 202.057px;" id="el9d7f8yzwd1g" class="animable"/></g></g></g><path d="M177.2,154.11a41.79,41.79,0,0,1-3.2,18.4c3.23,3,8.48,6.74,15.47,6.64s5.83-3.68,4-6.12c-5-2.52-5.33-6.23-4.1-8.48Z" style="fill: rgb(206, 122, 99); transform-origin: 184.434px 166.631px;" id="els16z5ik0pgf" class="animable"/><g id="elk4oqpd06v8"><path d="M189.33,164.56l-5.54-3.46c-2.55.4-3.78,3.65-.61,6.1,2.16,1.67,5.57,2.33,6,1.88A5,5,0,0,1,189.33,164.56Z" style="opacity: 0.2; transform-origin: 185.308px 165.159px;" class="animable"/></g><path d="M191.51,140.38c7.12-1.49,5.93,7.35,4.08,11.94C190.92,145.5,191.51,140.38,191.51,140.38Z" style="fill: rgb(38, 50, 56); transform-origin: 194.246px 146.266px;" id="elvf2wun0q1ac" class="animable"/><path d="M173.27,149.78c1.38,7.84,1.81,11.9,6.85,14.57,12.57,6.64,15.42,2.07,16.42-6,.89-7.3-1.51-18.9-9.6-21.1A11,11,0,0,0,173.27,149.78Z" style="fill: rgb(206, 122, 99); transform-origin: 184.91px 152.209px;" id="elmr7vnwv8o4" class="animable"/><path d="M175.62,156.24c6.83,1.4-.48-5.79,1.1-8.71s10.17-.75,7.71-5.52c6.67,1.69,12.85,2.3,14.2-2.2,2-6.54-4.38-7.79-8.14-5.9-3.15,1.59-3.12,2.11-7.83.53s-16.41-.66-13.42,4.71c-5.32.22-5.32,7-.92,8.93S170.47,155.18,175.62,156.24Z" style="fill: rgb(38, 50, 56); transform-origin: 182.068px 144.763px;" id="el6i0xqu1shln" class="animable"/><path d="M174.19,152.59a.27.27,0,0,1-.25-.19.26.26,0,0,1,.17-.33l10.64-3.3a.27.27,0,0,1,.33.17.26.26,0,0,1-.17.33l-10.64,3.3Z" style="fill: rgb(255, 255, 255); transform-origin: 179.51px 150.675px;" id="elr3ryzdv5va" class="animable"/><path d="M170.45,139.52c-2.57-2.07-6-2.58-6-1.36s4.8,1,5.26,1.82S170.45,139.52,170.45,139.52Z" style="fill: rgb(38, 50, 56); transform-origin: 167.45px 138.881px;" id="elj0dg1tqr31e" class="animable"/><path d="M192.59,158.24a63.71,63.71,0,0,0-9.24-.71c.78,1.56,2.26,2.86,5.75,2.95S192.59,158.24,192.59,158.24Z" style="fill: rgb(255, 255, 255); transform-origin: 187.97px 159.006px;" id="ellh2ie4go3a" class="animable"/><path d="M170.9,155.84a7.3,7.3,0,0,0,3.9,3.63c2.18.79,3.22-1.36,2.58-3.71-.59-2.11-2.42-5.07-4.59-4.83S169.87,153.72,170.9,155.84Z" style="fill: rgb(206, 122, 99); transform-origin: 174.005px 155.276px;" id="elhsyes1rrrz" class="animable"/><path d="M186.58,149.91c.1.67.54,1.15,1,1.08s.71-.67.61-1.34-.54-1.15-1-1.08S186.48,149.24,186.58,149.91Z" style="fill: rgb(38, 50, 56); transform-origin: 187.385px 149.78px;" id="eltf70wcn8nb" class="animable"/><path d="M193.83,149.75c.1.67.53,1.16,1,1.09s.71-.67.61-1.34-.54-1.16-1-1.09S193.72,149.08,193.83,149.75Z" style="fill: rgb(38, 50, 56); transform-origin: 194.634px 149.625px;" id="eldz4qlnvv3yc" class="animable"/><path d="M183.86,148.21a.44.44,0,0,1-.19-.07.4.4,0,0,1-.11-.55,4,4,0,0,1,3.17-1.83.4.4,0,1,1,0,.8h0a3.2,3.2,0,0,0-2.49,1.47A.38.38,0,0,1,183.86,148.21Z" style="fill: rgb(38, 50, 56); transform-origin: 185.312px 146.987px;" id="el2v5ci6hzjyd" class="animable"/><path d="M195.85,146a.4.4,0,0,1-.36-.11,3.13,3.13,0,0,0-2.69-1,.4.4,0,0,1-.47-.32.4.4,0,0,1,.32-.46,3.88,3.88,0,0,1,3.41,1.22.4.4,0,0,1,0,.56A.37.37,0,0,1,195.85,146Z" style="fill: rgb(38, 50, 56); transform-origin: 194.249px 145.039px;" id="eldawiuxls3te" class="animable"/><path d="M194.64,154.51a1.78,1.78,0,0,1-1.31-.63,6.44,6.44,0,0,1-1.1-4.66c.25-2.94,1.67-5.24,3.25-5.24a1.75,1.75,0,0,1,1.31.63,6.42,6.42,0,0,1,1.1,4.65C197.64,152.2,196.22,154.51,194.64,154.51Zm.84-10c-1.26,0-2.51,2.18-2.72,4.76a6,6,0,0,0,1,4.26,1.3,1.3,0,0,0,.93.46c1.26,0,2.51-2.18,2.72-4.76a5.92,5.92,0,0,0-1-4.25A1.24,1.24,0,0,0,195.48,144.5Z" style="fill: rgb(255, 255, 255); transform-origin: 195.06px 149.245px;" id="elzvbfp4dnj6a" class="animable"/><path d="M191.76,149.78a23.77,23.77,0,0,0,3.83,5.4,4,4,0,0,1-3.17,1Z" style="fill: rgb(186, 77, 60); transform-origin: 193.675px 152.995px;" id="ellg1fygwfe5d" class="animable"/><path d="M168,190.73l-2.62,2.73-2.67,2.82c-1.76,1.88-3.48,3.79-5.14,5.68-.82.95-1.62,1.91-2.38,2.87s-1.52,1.89-2.2,2.83-1.28,1.87-1.8,2.72a16.12,16.12,0,0,0-1.07,2.07l.18-1.36c-.09-.19-.1.37,0,1a14.08,14.08,0,0,0,.7,2.41,51.64,51.64,0,0,0,2.48,5.58c.95,1.93,2,3.86,3.08,5.82l3.26,5.86.06.11a4,4,0,0,1-5.95,5.06,65.27,65.27,0,0,1-5.43-4.87c-1.72-1.71-3.37-3.5-5-5.42a50.93,50.93,0,0,1-4.46-6.35,29.55,29.55,0,0,1-1.93-4,16,16,0,0,1-1.14-5.73,4.4,4.4,0,0,1,.07-.89l.1-.47a26.2,26.2,0,0,1,1.84-5.52,42.21,42.21,0,0,1,2.3-4.3,70.54,70.54,0,0,1,5.1-7.38c1.77-2.31,3.64-4.48,5.55-6.59,1-1.05,1.92-2.1,2.93-3.11s2-2,3.12-3a7.91,7.91,0,0,1,11.1,11.25Z" style="fill: rgb(207, 122, 100); transform-origin: 153.079px 207.502px;" id="elnl9wcy0txt" class="animable"/><path d="M154.69,229.49l8.86.13-3.12,10.16s-8-1.09-8.12-5.44Z" style="fill: rgb(206, 122, 99); transform-origin: 157.93px 234.635px;" id="elyuapzz8k8cn" class="animable"/><path d="M170,236.17l-1.7,3.37a3.06,3.06,0,0,1-3.66,1.56l-4.23-1.32,3.12-10.16,5,2.4A3.07,3.07,0,0,1,170,236.17Z" style="fill: rgb(206, 122, 99); transform-origin: 165.364px 235.431px;" id="elsi0bgtcxps" class="animable"/><path d="M166.14,173.55c-4.39,1.06-9.62,2.8-14.32,8A98.88,98.88,0,0,0,140,199c5,8.66,13.08,9.66,15.25,9.09,7.61-5.12,12.23-7.73,14.37-14.51S169.42,178.8,166.14,173.55Z" style="fill: rgb(38, 50, 56); transform-origin: 155.222px 190.885px;" id="elus0k75qegu" class="animable"/><path d="M187,154.51a1.8,1.8,0,0,1-1.32-.63,6.44,6.44,0,0,1-1.1-4.66c.25-2.94,1.67-5.24,3.25-5.24a1.77,1.77,0,0,1,1.32.63,6.36,6.36,0,0,1,1.09,4.65C190,152.2,188.53,154.51,187,154.51Zm.83-10c-1.26,0-2.5,2.18-2.72,4.76a6,6,0,0,0,1,4.26,1.27,1.27,0,0,0,.93.46c1.26,0,2.5-2.18,2.72-4.76a6,6,0,0,0-1-4.25A1.26,1.26,0,0,0,187.79,144.5Z" style="fill: rgb(255, 255, 255); transform-origin: 187.412px 149.245px;" id="eljw368yscghc" class="animable"/><path d="M192.49,149.51a.26.26,0,0,1-.24-.16.39.39,0,0,0-.24-.23,3.44,3.44,0,0,0-2,.36.26.26,0,0,1-.35-.13.27.27,0,0,1,.13-.35,3.85,3.85,0,0,1,2.37-.37,1,1,0,0,1,.54.51.27.27,0,0,1-.14.34A.23.23,0,0,1,192.49,149.51Z" style="fill: rgb(255, 255, 255); transform-origin: 191.177px 149.045px;" id="elvm9wlbsi6rm" class="animable"/></g><g id="freepik--character-2--inject-2" class="animable" style="transform-origin: 322.555px 277.801px;"><path d="M334.76,171.89c7.83-9,3.79-18.83-5-24.25s-19.06-1.46-23,7.73-2.54,11.57-5,12.07c-1.12,4.84,2.35,9.92,6.37,7.24C314.21,177.25,324.87,183.25,334.76,171.89Z" style="fill: rgb(38, 50, 56); transform-origin: 320.242px 161.877px;" id="el8hnnngi0t49" class="animable"/><path d="M324,179.18c-4.3,0-8.1-1.87-10.88-3.24l-1.24-.61.4-.84c.39.18.81.39,1.25.61,5.3,2.61,13.3,6.55,21.84-2.33,3.15-3.28,4.61-7,4.24-10.64-.4-3.9-2.9-7.7-6.86-10.42l.53-.77c4.19,2.88,6.83,6.92,7.26,11.1.4,4-1.15,7.9-4.49,11.37C331.87,177.77,327.75,179.18,324,179.18Z" style="fill: rgb(38, 50, 56); transform-origin: 326.241px 165.06px;" id="elx96isi672j" class="animable"/><path d="M305.9,159c-1.69-5.92.24-17.94,15-17.95s21,10.43,14.85,19.09C317.94,164.17,305.9,159,305.9,159Z" style="fill: rgb(38, 50, 56); transform-origin: 321.747px 151.363px;" id="elth0mx5hfzz" class="animable"/><path d="M299.8,170.9c-9.19,2.42-1.23,17.74,7.8,10.75-2-.14-6.4-4.56-3-7.42C301,171.09,299.8,170.9,299.8,170.9Z" style="fill: rgb(38, 50, 56); transform-origin: 301.659px 177.181px;" id="elt4jagpweebc" class="animable"/><path d="M299.92,184.58a5.48,5.48,0,0,1-2.45-.58,7.84,7.84,0,0,1-3.89-7.56,5.91,5.91,0,0,1,4.67-5.23l.23.91a4.91,4.91,0,0,0-4,4.42,6.85,6.85,0,0,0,3.37,6.62c1.95,1,4.21.45,6.35-1.51l.63.7A7.33,7.33,0,0,1,299.92,184.58Z" style="fill: rgb(38, 50, 56); transform-origin: 299.186px 177.895px;" id="elitkdc6udps" class="animable"/><path d="M307,175.26c-2.36-.49-6-6.61-4.5-8.07a4.34,4.34,0,0,0-4,3.13c-.61,1.89.6,5.43,4.82,6.49C305.37,177.35,307,175.26,307,175.26Z" style="fill: rgb(64, 123, 255); transform-origin: 302.676px 172.045px;" id="elfxp61ec3h4" class="animable"/><path d="M307.45,200.5c-.07,2.29-.24,4.55-.38,6.82l-.58,6.8c-.2,2.28-.48,4.55-.76,6.85-.15,1.14-.32,2.3-.53,3.5a27.8,27.8,0,0,1-.89,3.81,64.57,64.57,0,0,1-6.07,13,105.29,105.29,0,0,1-7.81,11.47,2.16,2.16,0,0,1-3.64-2.31l0-.05c2-3.94,4-8,5.76-12,.87-2,1.74-4,2.48-6.07a49.38,49.38,0,0,0,1.86-6,22.35,22.35,0,0,0,.46-2.84c.09-1,.16-2.14.22-3.24l.36-6.69.35-6.73c.15-2.25.25-4.5.44-6.74h0a4.36,4.36,0,0,1,8.71.49Z" style="fill: rgb(255, 181, 115); transform-origin: 296.987px 224.803px;" id="elm86h4n1mbyo" class="animable"/><path d="M306.78,241.22s0,52.36,3.18,80.72c.33,26.62,6.41,86.78,6.41,86.78h6.71c1.14-29.85,9.45-57.71,3.92-84,12.92-51.69,6.93-83.43,6.93-83.43Z" style="fill: rgb(255, 181, 115); transform-origin: 321.048px 324.97px;" id="elo4x6kxlxzu" class="animable"/><path d="M314.1,241.25s5,64.08,15.08,87c10.54,24.1,29.25,71.31,31.1,79.31l5.61-1.49s-3.71-51.82-20.84-81.11c5.3-72.22-8.05-83.73-8.05-83.73Z" style="fill: rgb(255, 181, 115); transform-origin: 339.995px 324.395px;" id="ell6r72gzs48" class="animable"/><path d="M304.64,187.47c-5.63,4.76-7.44,12.51-7.37,17.76,3.37,5.53,13.9,7.24,13.9,7.24s1.67-10.8.87-15.89S307.89,184.72,304.64,187.47Z" style="fill: rgb(38, 50, 56); transform-origin: 304.763px 199.653px;" id="eldn9pdhgb4ul" class="animable"/><path d="M300.6,197.41A11.32,11.32,0,0,1,310,185c1.63-.29,3.35-.56,5-.77a108.84,108.84,0,0,1,15.49-.55c1.48,0,2.93.08,4.3.17a8.84,8.84,0,0,1,8.18,10c-3.27,21.7-5.21,37.39-3.07,46.9,0,0,6.76,9,9.83,29.72,2.68,18.07,2,48.54,4.95,64.91-10.54,7.53-44,7.07-48.93,2.67,1.39-33.1-5.38-76.47-.23-96.5-2.06-11.1-.94-19.58-2.1-26.31C295.67,210.05,301.47,205.24,300.6,197.41Z" style="fill: rgb(38, 50, 56); transform-origin: 327.003px 262.419px;" id="elq1vis47ns7" class="animable"/><path d="M320.09,244.73c-5.93,0-11.43-.57-13.85-1.64q-1.5-.66-1.41-1.56a.28.28,0,0,1,.31-.26.3.3,0,0,1,.26.31c0,.43.65.81,1.07,1,5.83,2.57,29.75,2.28,33.59-2a.29.29,0,0,1,.41,0,.27.27,0,0,1,0,.4C338.16,243.53,328.67,244.73,320.09,244.73Z" style="fill: rgb(255, 255, 255); transform-origin: 322.692px 242.613px;" id="elxez52e3jmg8" class="animable"/><path d="M319.8,242.69c-5.93,0-11.43-.57-13.85-1.63-1-.44-1.47-1-1.41-1.57a.3.3,0,0,1,.32-.26.29.29,0,0,1,.25.32c0,.43.65.8,1.07,1,5.84,2.57,29.75,2.28,33.6-2a.29.29,0,0,1,.4,0,.29.29,0,0,1,0,.4C337.87,241.49,328.39,242.69,319.8,242.69Z" style="fill: rgb(255, 255, 255); transform-origin: 322.397px 240.58px;" id="elok610atl5s" class="animable"/><g id="el0svhgmnc3az"><path d="M325,310c.91-13.31,0-33.24-8.14-44.41C319,279.75,325,310,325,310Z" style="opacity: 0.2; transform-origin: 321.072px 287.795px;" class="animable"/></g><path d="M327.94,166.38c-.69,5-1.14,14.13,2.54,17.32a41.46,41.46,0,0,0-18.67,16.55c-4.88-11.13,3.18-16,3.18-16,5.48-1.52,5.1-5.62,3.91-9.45Z" style="fill: rgb(255, 181, 115); transform-origin: 320.36px 183.315px;" id="el2mlyu7y2qa9" class="animable"/><g id="elfuoxvn3hd6g"><path d="M324.25,169.82l-5.35,5a16.74,16.74,0,0,1,.64,2.72c2.1-.38,4.89-2.8,5-5A7.43,7.43,0,0,0,324.25,169.82Z" style="opacity: 0.2; transform-origin: 321.732px 173.68px;" class="animable"/></g><path d="M330,155.33c.42,8.26.77,11.76-2.88,16.35-5.49,6.91-15.68,5.4-18.55-2.62-2.58-7.23-2.83-19.53,4.8-23.53S329.57,147.06,330,155.33Z" style="fill: rgb(255, 181, 115); transform-origin: 318.598px 160.137px;" id="el9hkay9v4dbu" class="animable"/><path d="M322.24,148.8c-.62,8.71,8.8,16.2,11.75,12.89S329.67,142.86,322.24,148.8Z" style="fill: rgb(38, 50, 56); transform-origin: 328.437px 154.974px;" id="elnwoyi6fhuhm" class="animable"/><path d="M309.13,148.1c10.64,8.09,23.05,8.05,22.26,2.15S315.44,139.12,309.13,148.1Z" style="fill: rgb(38, 50, 56); transform-origin: 320.278px 148.863px;" id="el03b5f55heq5f" class="animable"/><path d="M317.25,158.64c.08.67-.22,1.25-.66,1.29s-.87-.47-.94-1.14.22-1.24.67-1.28S317.18,158,317.25,158.64Z" style="fill: rgb(38, 50, 56); transform-origin: 316.451px 158.72px;" id="elol70in9ejgb" class="animable"/><path d="M308.93,159.52c.08.67-.22,1.25-.67,1.29s-.86-.47-.93-1.14.22-1.24.66-1.28S308.86,158.85,308.93,159.52Z" style="fill: rgb(38, 50, 56); transform-origin: 308.131px 159.6px;" id="elmvzhgbe48s" class="animable"/><path d="M308.19,158.4l-1.68-.31S307.49,159.27,308.19,158.4Z" style="fill: rgb(38, 50, 56); transform-origin: 307.35px 158.405px;" id="el67259zukzei" class="animable"/><path d="M311.56,159.84a17.44,17.44,0,0,1-1.94,4.49,3,3,0,0,0,2.47.23Z" style="fill: rgb(237, 137, 62); transform-origin: 310.855px 162.283px;" id="el9x8r5d4t0v" class="animable"/><path d="M332.68,162.82a5.18,5.18,0,0,1-3.1,3.05c-1.83.59-2.88-1.38-2.48-3.44.35-1.86,1.72-4.41,3.61-4.09S333.42,161,332.68,162.82Z" style="fill: rgb(255, 181, 115); transform-origin: 329.983px 162.144px;" id="el2pd8f4d1zte" class="animable"/><path d="M319.4,155.3a.45.45,0,0,1-.28-.16,3.27,3.27,0,0,0-2.58-1.33.41.41,0,0,1-.44-.36.39.39,0,0,1,.37-.42,4,4,0,0,1,3.28,1.64.38.38,0,0,1-.07.55A.4.4,0,0,1,319.4,155.3Z" style="fill: rgb(38, 50, 56); transform-origin: 317.968px 154.166px;" id="eldk0ksegybxd" class="animable"/><path d="M306.45,156.65a.44.44,0,0,1-.3,0,.41.41,0,0,1-.22-.52,3.93,3.93,0,0,1,2.72-2.36.41.41,0,0,1,.47.33.39.39,0,0,1-.31.45,3.12,3.12,0,0,0-2.14,1.89A.37.37,0,0,1,306.45,156.65Z" style="fill: rgb(38, 50, 56); transform-origin: 307.515px 155.22px;" id="elxppfmquepk8" class="animable"/><path d="M316.52,157.53l-1.68-.32S315.81,158.39,316.52,157.53Z" style="fill: rgb(38, 50, 56); transform-origin: 315.68px 157.527px;" id="elv5fnp46cte9" class="animable"/><path d="M329,228.2l-6.61-3.37-1.53,8.35s5.34,1.28,9.1-.29l.59-1C330.7,230.07,330.48,229.31,329,228.2Z" style="fill: rgb(255, 181, 115); transform-origin: 325.725px 229.251px;" id="elcpylp2gyhu8" class="animable"/><path d="M317.13,227.08l-.16,3.67a2.1,2.1,0,0,0,1.85,2.18l2.06.25,1.53-8.35-3.33.23A2.11,2.11,0,0,0,317.13,227.08Z" style="fill: rgb(255, 181, 115); transform-origin: 319.689px 229.005px;" id="el8g9qi9syrw9" class="animable"/><path d="M343,191.49c1.62,4.57,3.08,9.12,4.39,13.78a122.08,122.08,0,0,1,3.38,14.37,30.8,30.8,0,0,1,.38,4.12,10.43,10.43,0,0,1-1.29,5.4,9.66,9.66,0,0,1-4.22,3.84,14,14,0,0,1-4.54,1.23,27.46,27.46,0,0,1-8-.49,32.52,32.52,0,0,1-3.69-.89,34.71,34.71,0,0,1-3.6-1.22,2.17,2.17,0,0,1,1.07-4.17H327c1.07.13,2.24.27,3.36.36s2.27.13,3.38.16a24.8,24.8,0,0,0,6.25-.55,7.39,7.39,0,0,0,2.24-.9,1.9,1.9,0,0,0,.86-1,3.42,3.42,0,0,0,.12-1.51,24.17,24.17,0,0,0-.47-3c-.44-2.14-1-4.38-1.67-6.6s-1.29-4.47-2-6.71c-1.41-4.46-2.87-9-4.32-13.41l0,0a4.36,4.36,0,0,1,8.26-2.82Z" style="fill: rgb(255, 181, 115); transform-origin: 337.799px 211.432px;" id="elplu0fll6fe8" class="animable"/><path d="M287.47,248.89l-7.39-.59,1.77,8.3s4.84-.77,7.8-3.28a1.8,1.8,0,0,0,.6-1.13h0a1.8,1.8,0,0,0-.09-.92A3.2,3.2,0,0,0,287.47,248.89Z" style="fill: rgb(255, 181, 115); transform-origin: 285.177px 252.45px;" id="el06l5qkufe9aa" class="animable"/><path d="M276.05,252.39l1.26,3.45a2.09,2.09,0,0,0,2.54,1.31l2-.55-1.77-8.3-3,1.48A2.12,2.12,0,0,0,276.05,252.39Z" style="fill: rgb(255, 181, 115); transform-origin: 278.887px 252.765px;" id="elmqajqn4xky" class="animable"/><path d="M338,184.71c4.94,2.08,7.29,5.44,11.37,14.78-1,6.4-11.81,11.84-11.81,11.84s-3.57-8.1-4.75-13.12S333,182.6,338,184.71Z" style="fill: rgb(38, 50, 56); transform-origin: 340.891px 197.883px;" id="elqy29lcp4kze" class="animable"/><path d="M323.6,408.76a.57.57,0,0,0-.6-.37l-6.24-.1a3.54,3.54,0,0,0-1.89.4,23.36,23.36,0,0,1-9.4,3.36c-1.32.2-.72,2.44,2.4,2.47,5.17.06,6.1-.33,10.51-.28,3.76,0,2,.21,5,.28.72,0,1.3-.45,1.21-.95Z" style="fill: rgb(38, 50, 56); transform-origin: 314.706px 411.404px;" id="el6ztyjpgb0py" class="animable"/><path d="M367,405a.59.59,0,0,0-.68-.21l-6.07,1.49a3.43,3.43,0,0,0-1.71.86c-1.47,1.7-3.5,4.31-7.7,4.94-1.33.2-.73,2.44,2.39,2.47,5.17.06,5.82-1.86,10.1-2.93,3.65-.91,2-.29,4.87-1,.7-.16,1.15-.76.93-1.22Z" style="fill: rgb(38, 50, 56); transform-origin: 359.681px 409.653px;" id="elljwnl0gomfg" class="animable"/><path d="M314.73,195.92c2.3-.86,8.77-1.37,11.69,1.35,4.78-2.46,7.39-9.49,6.8-13.79a6,6,0,0,0-3.91-1.2S318.66,189,314.73,195.92Z" style="fill: rgb(250, 250, 250); transform-origin: 324.016px 189.771px;" id="elf2mmj0w1c0k" class="animable"/><path d="M310.48,196s-1.32-5.62,5-11.91c-.76-.49-3.41.45-3.41.45s-7.68,4.35-6.45,13.29A7,7,0,0,1,310.48,196Z" style="fill: rgb(250, 250, 250); transform-origin: 310.483px 190.889px;" id="el4t6mb6hzlt" class="animable"/><path d="M319.35,165a6.88,6.88,0,0,0,.87-1,.21.21,0,0,0-.06-.31.25.25,0,0,0-.33,0,6.56,6.56,0,0,1-5.05,2.66.23.23,0,1,0,0,.45A7,7,0,0,0,319.35,165Z" style="fill: rgb(38, 50, 56); transform-origin: 317.383px 165.216px;" id="elprs9kgyfa4" class="animable"/></g><g id="freepik--Table--inject-2" class="animable" style="transform-origin: 249.75px 316.639px;"><path d="M231.23,416.24h-1.76l-7.6-146.33a8.32,8.32,0,0,0-8.31-7.89H187a8.33,8.33,0,0,0-8.32,7.89l-7.6,146.33h-1.76L177,269.82A10.07,10.07,0,0,1,187,260.27h26.53a10.07,10.07,0,0,1,10.06,9.55Z" style="fill: rgb(64, 123, 255); transform-origin: 200.275px 338.255px;" id="elpmer51p1sx8" class="animable"/><g id="elsg51ruok6c"><path d="M231.23,416.24h-1.76l-7.6-146.33a8.32,8.32,0,0,0-8.31-7.89H187a8.33,8.33,0,0,0-8.32,7.89l-7.6,146.33h-1.76L177,269.82A10.07,10.07,0,0,1,187,260.27h26.53a10.07,10.07,0,0,1,10.06,9.55Z" style="fill: rgb(255, 255, 255); opacity: 0.7; transform-origin: 200.275px 338.255px;" class="animable"/></g><path d="M330.18,416.24h-1.76l-7.6-146.33a8.32,8.32,0,0,0-8.31-7.89H286a8.33,8.33,0,0,0-8.32,7.89l-7.6,146.33H268.3l7.62-146.42A10.07,10.07,0,0,1,286,260.27h26.53a10.07,10.07,0,0,1,10.06,9.55Z" style="fill: rgb(64, 123, 255); transform-origin: 299.24px 338.255px;" id="elp2r3jgbhhks" class="animable"/><g id="elterv67bi6b"><path d="M330.18,416.24h-1.76l-7.6-146.33a8.32,8.32,0,0,0-8.31-7.89H286a8.33,8.33,0,0,0-8.32,7.89l-7.6,146.33H268.3l7.62-146.42A10.07,10.07,0,0,1,286,260.27h26.53a10.07,10.07,0,0,1,10.06,9.55Z" style="fill: rgb(255, 255, 255); opacity: 0.7; transform-origin: 299.24px 338.255px;" class="animable"/></g><rect x="172.19" y="254.7" width="154.59" height="8.5" style="fill: rgb(64, 123, 255); transform-origin: 249.485px 258.95px;" id="elqwp4qu7adnh" class="animable"/><g id="el85ne3ogohhr"><rect x="273.3" y="254.7" width="53.48" height="8.5" style="opacity: 0.3; transform-origin: 300.04px 258.95px;" class="animable"/></g><path d="M285.68,252.65H212.93a1,1,0,0,0-1,1h0a1,1,0,0,0,1,1h72.75a1,1,0,0,0,1-1h0A1,1,0,0,0,285.68,252.65Z" style="fill: rgb(64, 123, 255); transform-origin: 249.305px 253.65px;" id="elrzzcnbcv60d" class="animable"/><g id="el2t2iq1q0uj2"><path d="M285.68,252.65H212.93a1,1,0,0,0-1,1h0a1,1,0,0,0,1,1h72.75a1,1,0,0,0,1-1h0A1,1,0,0,0,285.68,252.65Z" style="fill: rgb(255, 255, 255); opacity: 0.1; transform-origin: 249.305px 253.65px;" class="animable"/></g><path d="M267.39,254.7h-59a2.64,2.64,0,0,1-2.41-1.93l-8.3-33.8a1.47,1.47,0,0,1,1.46-1.93h59a2.65,2.65,0,0,1,2.42,1.93l8.3,33.8A1.47,1.47,0,0,1,267.39,254.7Z" style="fill: rgb(64, 123, 255); transform-origin: 233.27px 235.87px;" id="el9r2nhkpa8ni" class="animable"/><g id="elus2qm67m1bf"><path d="M267.39,254.7h-59a2.64,2.64,0,0,1-2.41-1.93l-8.3-33.8a1.47,1.47,0,0,1,1.46-1.93h59a2.65,2.65,0,0,1,2.42,1.93l8.3,33.8A1.47,1.47,0,0,1,267.39,254.7Z" style="fill: rgb(255, 255, 255); opacity: 0.3; transform-origin: 233.27px 235.87px;" class="animable"/></g><path d="M250,244.42h-.09a.29.29,0,0,1-.18-.37,12,12,0,0,0-.14-8.64c-.08.14-.17.27-.26.4a4.59,4.59,0,0,1-3,1.64,5.44,5.44,0,0,1-2.95-.29,3.89,3.89,0,0,1-2.15-2.08,3.06,3.06,0,0,1,.37-3c1.43-1.84,4.36-1.41,5.92-.4a6.44,6.44,0,0,1,2,2.26,3.46,3.46,0,0,0,.07-.48,4.1,4.1,0,0,0-1.18-3.39,7.63,7.63,0,0,0-5.71-2,8,8,0,0,0-2.15.42.28.28,0,0,1-.36-.18.29.29,0,0,1,.17-.36,8.76,8.76,0,0,1,2.31-.45,8.18,8.18,0,0,1,6.15,2.17,4.74,4.74,0,0,1,1.34,3.85,5.39,5.39,0,0,1-.24,1.17v0a12.5,12.5,0,0,1,.36,9.5A.28.28,0,0,1,250,244.42Zm-5.52-13a3,3,0,0,0-2.45,1,2.46,2.46,0,0,0-.29,2.41,3.33,3.33,0,0,0,1.83,1.78,4.93,4.93,0,0,0,2.65.25,4,4,0,0,0,2.65-1.43,2.79,2.79,0,0,0,.4-.72,6.47,6.47,0,0,0-2.09-2.56A5.16,5.16,0,0,0,244.48,231.4Z" style="fill: rgb(255, 255, 255); transform-origin: 245.612px 235.95px;" id="eld82cmntk0tl" class="animable"/><polygon points="255.84 240.56 242.77 240.56 244.14 254.7 254.47 254.7 255.84 240.56" style="fill: rgb(64, 123, 255); transform-origin: 249.305px 247.63px;" id="elh8nuu7eurz" class="animable"/><path d="M249.1,229.68a4.28,4.28,0,0,1-1.19-.16.28.28,0,0,1-.19-.22,4.37,4.37,0,0,1,1.5-3.84,10.56,10.56,0,0,1,5-1.87.29.29,0,0,1,.25.1.28.28,0,0,1,.06.25,10.69,10.69,0,0,1-2.63,4.7h0A4.31,4.31,0,0,1,249.1,229.68Zm-.84-.66a3.78,3.78,0,0,0,3.3-.82h0a9.45,9.45,0,0,0,2.33-4,9.46,9.46,0,0,0-4.3,1.67A3.84,3.84,0,0,0,248.26,229Z" style="fill: rgb(255, 255, 255); transform-origin: 251.114px 226.634px;" id="el06b921frlts5" class="animable"/><path d="M239,236.83a7.83,7.83,0,0,1-2.87-.7.21.21,0,0,1-.1-.14.17.17,0,0,1,.06-.16,6.83,6.83,0,0,1,3-1.71,2.86,2.86,0,0,1,2.53.86.21.21,0,0,1,0,.19,2.84,2.84,0,0,1-2.12,1.62h0A3.52,3.52,0,0,1,239,236.83Zm.53-.22Zm-3-.7a6.29,6.29,0,0,0,3,.52,2.51,2.51,0,0,0,1.79-1.29,2.49,2.49,0,0,0-2.11-.66A6.12,6.12,0,0,0,236.57,235.91Z" style="fill: rgb(255, 255, 255); transform-origin: 238.835px 235.457px;" id="el1bnfqqd6szl" class="animable"/></g><g id="freepik--Flower--inject-2" class="animable" style="transform-origin: 104.235px 348.73px;"><path d="M103.68,392a.28.28,0,0,1-.28-.26c-2.33-24.4,1.92-89.52,6.88-105.58a.3.3,0,0,1,.36-.19.29.29,0,0,1,.19.36c-5,16-9.18,81-6.86,105.36a.28.28,0,0,1-.26.31Z" style="fill: rgb(38, 50, 56); transform-origin: 106.793px 338.98px;" id="el1yijvmv0czc" class="animable"/><polygon points="114.67 371.38 91.67 371.38 94.67 416.24 111.67 416.24 114.67 371.38" style="fill: rgb(64, 123, 255); transform-origin: 103.17px 393.81px;" id="eln0yo8zirod8" class="animable"/><path d="M103.94,302.65a10.37,10.37,0,0,1,2.48,9.31,10.4,10.4,0,0,1-9.12-3.13c-3.9-4.2-5-12.07-5-12.07S100,298.45,103.94,302.65Z" style="fill: rgb(38, 50, 56); transform-origin: 99.4881px 304.419px;" id="ele7cntdqrkf8" class="animable"/><path d="M117.55,324.67a13.42,13.42,0,0,1-12.44.7,13.42,13.42,0,0,1,6.36-10.72c6.34-3.85,16.6-3.22,16.6-3.22S123.89,320.82,117.55,324.67Z" style="fill: rgb(38, 50, 56); transform-origin: 116.59px 318.982px;" id="elf6txnhp98tm" class="animable"/><path d="M116.33,285.06a3.83,3.83,0,1,1-3.83-3.84A3.83,3.83,0,0,1,116.33,285.06Z" style="fill: rgb(64, 123, 255); transform-origin: 112.5px 285.05px;" id="el3miulpqw6hq" class="animable"/><path d="M88.55,347.07a17,17,0,0,0,15,5.21,17,17,0,0,0-4-15.32c-6.4-6.92-19.15-9.75-19.15-9.75S82.15,340.15,88.55,347.07Z" style="fill: rgb(38, 50, 56); transform-origin: 92.1969px 339.843px;" id="elkcn03jksypk" class="animable"/></g><defs>     <filter id="active" height="200%">         <feMorphology in="SourceAlpha" result="DILATED" operator="dilate" radius="2"/>                <feFlood flood-color="#32DFEC" flood-opacity="1" result="PINK"/>        <feComposite in="PINK" in2="DILATED" operator="in" result="OUTLINE"/>        <feMerge>            <feMergeNode in="OUTLINE"/>            <feMergeNode in="SourceGraphic"/>        </feMerge>    </filter>    <filter id="hover" height="200%">        <feMorphology in="SourceAlpha" result="DILATED" operator="dilate" radius="2"/>                <feFlood flood-color="#ff0000" flood-opacity="0.5" result="PINK"/>        <feComposite in="PINK" in2="DILATED" operator="in" result="OUTLINE"/>        <feMerge>            <feMergeNode in="OUTLINE"/>            <feMergeNode in="SourceGraphic"/>        </feMerge>            <feColorMatrix type="matrix" values="0   0   0   0   0                0   1   0   0   0                0   0   0   0   0                0   0   0   1   0 "/>    </filter></defs><defs><clipPath id="freepik--clip-path--inject-2"><path d="M167.92,173.19a149.31,149.31,0,0,1,30.81-.2,17.13,17.13,0,0,1,15.33,17.09c-.05,15.76-2.58,33.17-5.2,57.38-7.46,7.71-47.48-.31-47.48-.31A174.71,174.71,0,0,1,164.62,221c-1.36-10-4.82-21.4-6.77-34.65A11.59,11.59,0,0,1,167.92,173.19Z" style="fill:none"/></clipPath></defs></svg>